<?xml version="1.0" encoding="UTF-8"?>
<svg id="Layer_2" data-name="Layer 2" xmlns="http://www.w3.org/2000/svg" viewBox="0 0 340 340">
  <defs>
    <style>
      .cls-1, .cls-2 {
        fill: none;
      }

      .cls-2 {
        stroke: #f0c807;
        stroke-width: 20px;
      }

      .cls-3 {
        fill: #fff;
        stroke: #fff;
      }
    </style>
  </defs>
  <g id="Layer_1-2" data-name="Layer 1">
    <g id="lineup">
      <g id="Ellipse_12" data-name="Ellipse 12">
        <circle class="cls-1" cx="170" cy="170" r="170"/>
        <circle class="cls-2" cx="170" cy="170" r="160"/>
      </g>
      <g id="noun-band-3605551">
        <path id="Path_96" data-name="Path 96" class="cls-3" d="M105.96,140.85h-17.66c-1.08,0-1.96-.88-1.96-1.96,0-6.73-5.44-10.95-5.49-10.99-.66-.5-.94-1.36-.69-2.15l11.77-37.67c.92-2.81,2.37-5.43,4.25-7.71,3.78-4.82,10.08-6.93,16-5.36,4.28,1.04,7.81,4.04,9.53,8.1h0c2,4.39,1.84,9.46-.45,13.71-2.53,4.52-6.24,7.67-10.46,8.87-.58,.18-2.49,.91-2.03,2.72,.99,3.88,3.23,16.98,3.33,17.53h0c.11,.65-.11,1.3-.58,1.75-.14,.13-3.59,3.61-3.59,11.19,0,1.08-.88,1.96-1.96,1.96,0,0-.01,0-.02,0h0Zm-15.7-1.96l-.11-1.96h13.92c.18-4.06,1.57-7.98,4-11.24-.54-3.1-2.3-13.15-3.11-16.3-1.07-4.17,2.26-6.75,4.75-7.46,4.32-1.23,6.94-4.92,8.11-7.01h0c1.69-3.17,1.8-6.94,.31-10.2-1.22-2.93-3.74-5.11-6.82-5.89-11.63-2.65-15.47,9.85-15.64,10.39l-11.37,36.49c3.18,2.96,5.25,6.92,5.86,11.22l.11,1.96Z"/>
        <path id="Path_97" data-name="Path 97" class="cls-3" d="M105.84,266.44h-17.54c-1.08,0-1.96-.88-1.96-1.96v-125.59c0-1.08,.88-1.96,1.96-1.96s1.96,.88,1.96,1.96v123.63h13.61v-123.63c0-1.08,.88-1.96,1.96-1.96s1.96,.88,1.96,1.96v125.59c0,1.08-.88,1.96-1.96,1.96h0Z"/>
        <path id="Path_98" data-name="Path 98" class="cls-3" d="M154.51,266.44h-17.67c-1.08,0-1.96-.88-1.96-1.96v-100.08c0-1.08,.88-1.96,1.96-1.96s1.96,.88,1.96,1.96v98.11h13.74v-98.11c0-1.08,.88-1.96,1.96-1.96s1.96,.88,1.96,1.96v100.08c0,1.08-.88,1.96-1.96,1.96h0Z"/>
        <path id="Path_99" data-name="Path 99" class="cls-3" d="M154.58,166.36h-18.05c-1.08,0-1.96-.88-1.96-1.96,0-5.66-8.43-7.11-8.52-7.13-1.07-.18-1.79-1.19-1.62-2.25,.01-.07,.03-.15,.05-.22l13.92-48.36c.27-.94,1.2-1.54,2.17-1.4,12.25,1.78,15.92-4.16,16.09-4.41,.42-.75,1.29-1.14,2.13-.95,.85,.19,1.47,.91,1.53,1.78l4.13,53.72c.07,.92-.51,1.77-1.4,2.03-5.46,1.62-6.48,7.26-6.52,7.5h0c-.16,.95-.98,1.65-1.94,1.64h0Zm-16.3-3.92h14.77c1.13-3.73,3.8-6.8,7.34-8.43l-3.69-48.02c-2.77,1.96-7.49,3.88-15,3.14l-12.89,44.79c1.22,.37,2.4,.85,3.53,1.44,3.3,1.74,5.32,4.16,5.93,7.07h0Z"/>
        <path id="Path_100" data-name="Path 100" class="cls-3" d="M259.46,265.96h-.55c-2.21,.08-4.35-.74-5.93-2.28-1.61-1.78-2.51-4.1-2.52-6.5v-76.08l3.8-43c-2.17-2.5-3.39-5.69-3.43-9,0-6.33,4.2-10.24,8.09-10.24h.54c2.24,.08,4.33,1.16,5.68,2.95h0c1.61,2.08,2.46,4.66,2.41,7.29-.03,3.31-1.24,6.5-3.41,9l3.83,42.98v76.13c-.03,2.4-.94,4.7-2.55,6.48-1.58,1.54-3.73,2.36-5.93,2.27h0Zm-5.08-84.62v75.87c0,.81,.23,4.82,4.53,4.82h.55c4.32,0,4.56-4.02,4.57-4.83v-75.87l-3.9-43.77h0c-.05-.61,.18-1.21,.63-1.62,1.78-1.84,2.79-4.28,2.84-6.83,.05-1.73-.48-3.43-1.53-4.82-.62-.86-1.58-1.41-2.63-1.5h-.54c-1.75,0-4.17,2.2-4.17,6.32h0c.06,2.56,1.08,5.01,2.86,6.85,.45,.41,.68,1.01,.63,1.62l-3.86,43.75Z"/>
        <path id="Path_101" data-name="Path 101" class="cls-3" d="M234.74,265.96h-.55c-2.21,.08-4.35-.74-5.93-2.28-1.61-1.78-2.51-4.1-2.52-6.5v-76.08l3.8-43c-2.17-2.5-3.39-5.69-3.43-9,0-6.33,4.2-10.24,8.09-10.24h.54c2.24,.08,4.33,1.16,5.68,2.95h0c1.61,2.08,2.46,4.66,2.41,7.29-.03,3.31-1.24,6.5-3.41,9l3.83,42.98v76.13c-.03,2.4-.94,4.7-2.55,6.48-1.58,1.54-3.73,2.36-5.93,2.27h0Zm-5.08-84.62v75.87c0,.81,.23,4.82,4.53,4.82h.55c4.32,0,4.56-4.02,4.57-4.83v-75.87l-3.9-43.77h0c-.05-.61,.18-1.21,.63-1.62,1.78-1.84,2.79-4.28,2.84-6.83,.05-1.73-.48-3.43-1.53-4.82-.62-.86-1.58-1.41-2.63-1.5h-.54c-1.75,0-4.17,2.2-4.17,6.32h0c.06,2.56,1.08,5.01,2.86,6.85,.45,.41,.68,1.01,.63,1.62l-3.86,43.75Z"/>
        <path id="Path_102" data-name="Path 102" class="cls-3" d="M145.3,117.2c-.18,0-.36-.03-.53-.07-1.04-.29-1.66-1.37-1.37-2.41,0,0,0,0,0,0l.09-.34h0c.26-1.05,1.32-1.7,2.37-1.44s1.7,1.32,1.44,2.37c0,.04-.02,.07-.03,.11l-.11,.32c-.23,.85-.99,1.45-1.88,1.46h0Z"/>
        <path id="Path_103" data-name="Path 103" class="cls-3" d="M143.57,124.37c-.18,0-.35-.02-.52-.07-1.04-.29-1.66-1.37-1.37-2.41l.09-.34c.31-1.04,1.4-1.63,2.44-1.33,1.01,.3,1.61,1.35,1.35,2.37l-.09,.34h0c-.23,.85-1.01,1.44-1.89,1.44h0Z"/>
        <path id="Path_104" data-name="Path 104" class="cls-3" d="M141.84,131.58c-.18,0-.36-.03-.53-.08-1.04-.29-1.66-1.37-1.37-2.41h0s.1-.35,.1-.35h0c.33-1.03,1.44-1.6,2.47-1.26,.97,.31,1.54,1.32,1.31,2.31l-.09,.34c-.24,.85-1.01,1.44-1.89,1.44h0Z"/>
        <path id="Path_105" data-name="Path 105" class="cls-3" d="M139.86,138.69c-.18,0-.35-.02-.53-.07-1.04-.29-1.66-1.37-1.37-2.41l.09-.34c.29-1.04,1.37-1.66,2.42-1.37,1.04,.29,1.66,1.37,1.37,2.42l-.1,.34h0c-.24,.85-1.01,1.44-1.89,1.44h0Z"/>
        <path id="Path_106" data-name="Path 106" class="cls-3" d="M138.15,145.89c-1.08,0-1.96-.88-1.96-1.96,0-.18,.02-.35,.07-.52l.09-.34h0c.29-1.04,1.37-1.66,2.41-1.37,1.04,.29,1.66,1.37,1.37,2.41h0l-.09,.34c-.24,.85-1.01,1.44-1.89,1.44h0Z"/>
        <path id="Path_107" data-name="Path 107" class="cls-3" d="M136.4,153.08c-.18,0-.35-.02-.52-.07-1.04-.29-1.66-1.37-1.37-2.41,0,0,0,0,0,0l.11-.32c.27-1.05,1.34-1.68,2.39-1.42,1.05,.27,1.68,1.34,1.42,2.39,0,.02-.01,.05-.02,.07l-.09,.34c-.24,.85-1.02,1.43-1.9,1.43h0Z"/>
        <path id="Path_108" data-name="Path 108" class="cls-3" d="M101.6,91.01c-.22,0-.44-.03-.64-.11-1.02-.36-1.56-1.47-1.21-2.5,0,0,0,0,0,0l.17-.5c.46-.98,1.63-1.4,2.61-.94,.84,.39,1.29,1.31,1.08,2.22l-.16,.5c-.27,.79-1.01,1.33-1.85,1.33h0Z"/>
        <path id="Path_109" data-name="Path 109" class="cls-3" d="M98.2,101.5c-1.08,0-1.96-.88-1.96-1.96,0-.22,.04-.44,.11-.65l.17-.5h0c.32-1.04,1.41-1.62,2.45-1.31,1.04,.32,1.62,1.41,1.31,2.45-.01,.05-.03,.1-.05,.14l-.17,.5h0c-.27,.79-1.02,1.32-1.85,1.32h0Z"/>
        <path id="Path_110" data-name="Path 110" class="cls-3" d="M94.79,112c-1.08,0-1.96-.87-1.96-1.95,0-.22,.04-.44,.11-.65l.17-.5h0c.36-1.02,1.48-1.56,2.5-1.2,1.01,.36,1.55,1.47,1.2,2.48l-.18,.5c-.27,.79-1.02,1.32-1.85,1.32h0Z"/>
        <path id="Path_111" data-name="Path 111" class="cls-3" d="M91.17,122.41c-.22,0-.44-.03-.64-.11-1.02-.35-1.57-1.47-1.21-2.49,0,0,0,0,0,0l.18-.5c.3-1.04,1.38-1.64,2.43-1.35,1.04,.3,1.64,1.38,1.35,2.43-.02,.07-.04,.14-.07,.21l-.18,.51c-.28,.78-1.02,1.31-1.85,1.31h0Z"/>
        <path id="Path_112" data-name="Path 112" class="cls-3" d="M137.75,114.95c-.18,0-.35-.02-.52-.07l-4.32-1.18c-1.03-.32-1.61-1.42-1.29-2.46,.31-.98,1.32-1.56,2.32-1.32l4.32,1.18c1.04,.29,1.66,1.37,1.36,2.42-.24,.85-1,1.43-1.88,1.44h0Z"/>
        <path id="Path_113" data-name="Path 113" class="cls-3" d="M94.19,88.26c-.17,0-.34-.02-.5-.07l-7.46-1.96c-1.03-.33-1.61-1.43-1.28-2.46,.3-.97,1.29-1.54,2.28-1.33l7.46,1.96c1.05,.28,1.67,1.36,1.39,2.4-.23,.85-1,1.45-1.89,1.45Z"/>
        <path id="Path_114" data-name="Path 114" class="cls-3" d="M85.56,88.26c-1.08,0-1.96-.88-1.96-1.96,0-.17,.02-.35,.07-.52l1.18-4.32c.32-1.03,1.42-1.61,2.46-1.29,.98,.31,1.56,1.32,1.32,2.32l-1.18,4.32c-.23,.85-1.01,1.44-1.89,1.44Z"/>
        <path id="Path_115" data-name="Path 115" class="cls-3" d="M90.27,99.25c-.17,0-.34-.02-.5-.07l-7.46-1.96c-1.06-.23-1.73-1.27-1.51-2.33s1.27-1.73,2.33-1.51c.06,.01,.12,.03,.18,.05l7.46,1.96c1.05,.28,1.67,1.36,1.39,2.4-.23,.85-1,1.45-1.89,1.45h0Z"/>
        <path id="Path_116" data-name="Path 116" class="cls-3" d="M81.63,99.25c-1.08,0-1.96-.88-1.96-1.96,0-.17,.02-.35,.07-.52l1.18-4.32c.25-1.06,1.31-1.71,2.36-1.46,1.06,.25,1.71,1.31,1.46,2.36-.01,.05-.02,.09-.04,.13l-1.18,4.32c-.23,.85-1.01,1.44-1.89,1.44Z"/>
        <path id="Path_117" data-name="Path 117" class="cls-3" d="M87.13,109.46c-.17,0-.34-.02-.5-.07l-7.46-1.96c-1.06-.23-1.73-1.27-1.51-2.33s1.27-1.73,2.33-1.51c.06,.01,.12,.03,.18,.05l7.46,1.96c1.05,.28,1.67,1.36,1.39,2.4-.23,.85-1,1.45-1.89,1.45h0Z"/>
        <path id="Path_118" data-name="Path 118" class="cls-3" d="M78.49,109.46c-1.08,0-1.96-.88-1.96-1.96,0-.17,.02-.35,.07-.52l1.18-4.32c.25-1.06,1.31-1.71,2.36-1.46s1.71,1.31,1.46,2.36c-.01,.05-.02,.09-.04,.13l-1.18,4.32c-.23,.85-1.01,1.44-1.89,1.44h0Z"/>
        <path id="Path_119" data-name="Path 119" class="cls-3" d="M83.6,120.45c-.17,0-.34-.02-.5-.07l-7.46-1.96c-1.06-.23-1.73-1.27-1.51-2.33s1.27-1.73,2.33-1.51c.06,.01,.12,.03,.18,.05l7.45,1.96c1.05,.28,1.67,1.36,1.39,2.4-.23,.85-1,1.45-1.89,1.45h0Z"/>
        <path id="Path_120" data-name="Path 120" class="cls-3" d="M74.96,120.45c-1.08,0-1.96-.88-1.96-1.96,0-.17,.02-.35,.07-.52l1.18-4.32c.25-1.06,1.31-1.71,2.36-1.46s1.71,1.31,1.46,2.36c-.01,.05-.02,.09-.04,.13l-1.18,4.32c-.23,.85-1.01,1.44-1.89,1.44Z"/>
        <path id="Path_121" data-name="Path 121" class="cls-3" d="M135.79,122.02c-.18,0-.35-.02-.52-.07l-4.32-1.18c-1.03-.32-1.61-1.42-1.29-2.46,.31-.98,1.32-1.56,2.32-1.32l4.32,1.18c1.04,.29,1.66,1.37,1.36,2.42-.24,.85-1,1.43-1.88,1.44h0Z"/>
        <path id="Path_122" data-name="Path 122" class="cls-3" d="M133.83,129.08c-.18,0-.35-.02-.52-.07l-4.32-1.18c-1.03-.32-1.61-1.42-1.29-2.46,.31-.98,1.32-1.56,2.32-1.32l4.32,1.18c1.04,.29,1.66,1.37,1.36,2.42-.24,.85-1,1.43-1.88,1.44h0Z"/>
        <path id="Path_123" data-name="Path 123" class="cls-3" d="M131.87,136.14c-.18,0-.35-.02-.52-.07l-4.32-1.18c-1.03-.32-1.61-1.42-1.29-2.46,.31-.98,1.32-1.56,2.32-1.32l4.32,1.18c1.04,.29,1.66,1.37,1.36,2.42-.24,.85-1,1.43-1.88,1.44h0Z"/>
        <path id="Path_124" data-name="Path 124" class="cls-3" d="M129.9,143.6c-.18,0-.35-.02-.52-.07l-4.32-1.18c-1.03-.32-1.61-1.42-1.29-2.46,.31-.98,1.32-1.56,2.32-1.32l4.32,1.18c1.04,.29,1.66,1.37,1.36,2.42-.24,.85-1,1.43-1.88,1.44h0Z"/>
        <path id="Path_125" data-name="Path 125" class="cls-3" d="M127.94,150.66c-.18,0-.35-.02-.52-.07l-4.32-1.18c-1.03-.32-1.61-1.42-1.29-2.46,.31-.98,1.32-1.56,2.32-1.32l4.32,1.18c1.04,.29,1.66,1.37,1.36,2.42-.24,.85-1,1.43-1.88,1.44h0Z"/>
        <path id="Path_126" data-name="Path 126" class="cls-3" d="M177.86,116.25c-.62,0-1.2-.29-1.57-.78-3.38-4.45-5.2-9.89-5.18-15.48-.15-14.17,11.21-25.79,25.39-25.94,14.17-.15,25.79,11.21,25.94,25.39,0,.18,0,.37,0,.55,.07,5.5-1.69,10.86-5.02,15.24-.65,.87-1.88,1.04-2.75,.39-.87-.65-1.04-1.88-.39-2.75,2.8-3.7,4.28-8.23,4.21-12.87,.18-12.01-9.4-21.89-21.41-22.07-12.01-.18-21.89,9.4-22.07,21.41,0,.22,0,.44,0,.66-.02,4.74,1.53,9.35,4.4,13.12,.65,.87,.48,2.1-.39,2.75-.34,.26-.75,.39-1.18,.39h.01Z"/>
        <path id="Path_127" data-name="Path 127" class="cls-3" d="M203.52,190.17h-13.2c-2.76,.18-5.15-1.91-5.33-4.67,0-.07,0-.14,0-.21l-6.41-62.67c-.06-1.08,.77-2.01,1.86-2.06,1.01-.05,1.9,.67,2.04,1.67l6.42,62.75c0,.06,0,.12,0,.18,.05,.66,.63,1.16,1.3,1.11,.04,0,.08,0,.13-.02h13.2c1.06,0,1.65-.39,1.75-1.22,0-.02,0-.04,0-.06l6.32-62.76c.16-1.07,1.16-1.81,2.23-1.65,1,.15,1.72,1.03,1.67,2.04l-6.31,62.72c-.27,2.88-2.77,5.02-5.66,4.84h0Z"/>
        <path id="Path_128" data-name="Path 128" class="cls-3" d="M197.37,174.38c-1.08,0-1.96-.88-1.96-1.96h0v-.23c0-1.08,.88-1.96,1.96-1.96s1.96,.88,1.96,1.96v.23c0,1.08-.88,1.96-1.96,1.96h0Z"/>
        <path id="Path_129" data-name="Path 129" class="cls-3" d="M214.88,124.37h-35.64c-2.29,0-4.07-2.15-4.07-4.89v-2.38c0-2.81,1.79-5.02,4.07-5.02h35.64c2.27,0,3.97,2.16,3.97,5.02v2.38c0,2.79-1.7,4.89-3.97,4.89Zm-35.52-3.93h35.35c.16-.3,.23-.63,.21-.97v-2.38h0c.01-.38-.07-.76-.25-1.1h-35.27c-.22,.32-.33,.71-.31,1.1v2.38h0c-.02,.34,.07,.69,.26,.97Z"/>
        <path id="Path_130" data-name="Path 130" class="cls-3" d="M209.57,266.04c-.39,0-.77-.11-1.09-.33-.9-.6-1.14-1.82-.55-2.72,1.84-2.75,3.26-7.23,2.29-10.99-.45-1.93-1.73-3.56-3.5-4.45-3.14-1.62-7.06-.6-10.82,.39-.79,.2-1.57,.39-2.36,.59-5.25,1.23-11.19,2.61-17.24,2.01-3.78-.32-7.38-1.74-10.36-4.09-3.17-2.48-4.93-6.35-4.71-10.37,.03-3.4,1.66-6.59,4.39-8.61,5.34-3.89,14.3-3.35,20.36-1.7,1.55,.42,3.17,.98,4.88,1.57,6.28,2.17,12.8,4.42,17.51,.7,3.15-2.36,3.85-6.8,1.57-10.02-1.55-2.14-3.35-4.08-5.37-5.78-2.23-1.91-4.22-4.08-5.94-6.46-3.71-5.6-4.05-12.66-3.69-17.6,.05-1.09,.98-1.92,2.06-1.87,1.09,.05,1.92,.98,1.87,2.06,0,.03,0,.06,0,.09-.32,4.32-.05,10.47,3.04,15.14,1.55,2.12,3.34,4.05,5.35,5.75,2.25,1.91,4.26,4.1,5.98,6.5,3.39,4.92,2.32,11.63-2.42,15.26-6.4,5.05-14.62,2.21-21.22-.07-1.65-.57-3.2-1.11-4.63-1.5-5.45-1.48-13.09-1.78-17.01,1.08-1.77,1.31-2.81,3.39-2.79,5.6-.27,6.31,5.79,9.81,11.54,10.39,5.4,.54,11.01-.77,15.96-1.92,.73-.17,1.46-.36,2.24-.57,4.28-1.12,9.13-2.38,13.61-.07h0c2.76,1.4,4.77,3.94,5.49,6.95,1.12,4.32,0,9.88-2.83,14.13-.36,.55-.97,.88-1.63,.88h0Z"/>
        <path id="Path_131" data-name="Path 131" class="cls-3" d="M197.41,145.56c-4.33,0-7.85-3.51-7.85-7.85,0-4.33,3.51-7.85,7.85-7.85s7.85,3.51,7.85,7.85c0,2.08-.83,4.08-2.3,5.55-1.47,1.47-3.47,2.3-5.55,2.3Zm0-11.77c-2.17,0-3.92,1.76-3.92,3.92,0,2.17,1.76,3.92,3.92,3.92,2.17,0,3.92-1.76,3.92-3.92,0-1.04-.41-2.04-1.15-2.77-.74-.74-1.73-1.15-2.77-1.15Z"/>
        <path id="Path_132" data-name="Path 132" class="cls-3" d="M213.05,97.2h-.35c-1.08,0-1.96-.88-1.96-1.96s.88-1.96,1.96-1.96h.35c1.08,0,1.96,.88,1.96,1.96s-.88,1.96-1.96,1.96h0Z"/>
        <path id="Path_133" data-name="Path 133" class="cls-3" d="M213.05,109.02h-.35c-1.08,0-1.96-.88-1.96-1.96s.88-1.96,1.96-1.96h.35c1.08,0,1.96,.88,1.96,1.96s-.88,1.96-1.96,1.96h0Z"/>
        <path id="Path_134" data-name="Path 134" class="cls-3" d="M202.31,85.39h-.35c-1.08,0-1.96-.88-1.96-1.96s.88-1.96,1.96-1.96h.35c1.08,0,1.96,.88,1.96,1.96s-.88,1.96-1.96,1.96Z"/>
        <path id="Path_135" data-name="Path 135" class="cls-3" d="M202.31,97.2h-.35c-1.08,0-1.96-.88-1.96-1.96s.88-1.96,1.96-1.96h.35c1.08,0,1.96,.88,1.96,1.96s-.88,1.96-1.96,1.96Z"/>
        <path id="Path_136" data-name="Path 136" class="cls-3" d="M202.31,109.02h-.35c-1.08,0-1.96-.88-1.96-1.96s.88-1.96,1.96-1.96h.35c1.08,0,1.96,.88,1.96,1.96s-.88,1.96-1.96,1.96Z"/>
        <path id="Path_137" data-name="Path 137" class="cls-3" d="M191.56,85.39h-.35c-1.08,0-1.96-.88-1.96-1.96s.88-1.96,1.96-1.96h.35c1.08,0,1.96,.88,1.96,1.96s-.88,1.96-1.96,1.96Z"/>
        <path id="Path_138" data-name="Path 138" class="cls-3" d="M191.56,97.2h-.35c-1.08,0-1.96-.88-1.96-1.96s.88-1.96,1.96-1.96h.35c1.08,0,1.96,.88,1.96,1.96s-.88,1.96-1.96,1.96Z"/>
        <path id="Path_139" data-name="Path 139" class="cls-3" d="M191.56,109.02h-.35c-1.08,0-1.96-.88-1.96-1.96s.88-1.96,1.96-1.96h.35c1.08,0,1.96,.88,1.96,1.96s-.88,1.96-1.96,1.96Z"/>
        <path id="Path_140" data-name="Path 140" class="cls-3" d="M180.82,97.2h-.35c-1.08,0-1.96-.88-1.96-1.96s.88-1.96,1.96-1.96h.35c1.08,0,1.96,.88,1.96,1.96s-.88,1.96-1.96,1.96Z"/>
        <path id="Path_141" data-name="Path 141" class="cls-3" d="M180.82,109.02h-.35c-1.08,0-1.96-.88-1.96-1.96s.88-1.96,1.96-1.96h.35c1.08,0,1.96,.88,1.96,1.96s-.88,1.96-1.96,1.96Z"/>
        <path id="Path_142" data-name="Path 142" class="cls-3" d="M154.41,183.08h-16.78c-1.08,0-1.96-.88-1.96-1.96s.88-1.96,1.96-1.96h16.78c1.08,0,1.96,.88,1.96,1.96s-.88,1.96-1.96,1.96Z"/>
        <path id="Path_143" data-name="Path 143" class="cls-3" d="M154.41,196.72h-16.78c-1.08,0-1.96-.88-1.96-1.96s.88-1.96,1.96-1.96h16.78c1.08,0,1.96,.88,1.96,1.96s-.88,1.96-1.96,1.96Z"/>
        <path id="Path_144" data-name="Path 144" class="cls-3" d="M154.41,210.36h-16.78c-1.08,0-1.96-.88-1.96-1.96s.88-1.96,1.96-1.96h16.78c1.08,0,1.96,.88,1.96,1.96s-.88,1.96-1.96,1.96Z"/>
        <path id="Path_145" data-name="Path 145" class="cls-3" d="M154.41,224.31h-16.78c-1.08,0-1.96-.88-1.96-1.96s.88-1.96,1.96-1.96h16.78c1.08,0,1.96,.88,1.96,1.96s-.88,1.96-1.96,1.96Z"/>
        <path id="Path_146" data-name="Path 146" class="cls-3" d="M154.41,237.95h-16.78c-1.08,0-1.96-.88-1.96-1.96s.88-1.96,1.96-1.96h16.78c1.08,0,1.96,.88,1.96,1.96s-.88,1.96-1.96,1.96Z"/>
        <path id="Path_147" data-name="Path 147" class="cls-3" d="M154.41,251.53h-16.78c-1.08,0-1.96-.88-1.96-1.96s.88-1.96,1.96-1.96h16.78c1.08,0,1.96,.88,1.96,1.96s-.88,1.96-1.96,1.96Z"/>
        <path id="Path_148" data-name="Path 148" class="cls-3" d="M105.36,159.14h-16.78c-1.08,0-1.96-.88-1.96-1.96,0-1.08,.88-1.96,1.96-1.96h16.79c1.08,0,1.96,.88,1.96,1.96,0,1.08-.88,1.96-1.96,1.96Z"/>
        <path id="Path_149" data-name="Path 149" class="cls-3" d="M105.36,174.15h-16.78c-1.08,0-1.96-.88-1.96-1.96s.88-1.96,1.96-1.96h16.78c1.08,0,1.96,.88,1.96,1.96s-.88,1.96-1.96,1.96Z"/>
        <path id="Path_150" data-name="Path 150" class="cls-3" d="M105.36,189.17h-16.78c-1.08,0-1.96-.88-1.96-1.96s.88-1.96,1.96-1.96h16.78c1.08,0,1.96,.88,1.96,1.96s-.88,1.96-1.96,1.96Z"/>
        <path id="Path_151" data-name="Path 151" class="cls-3" d="M105.36,204.5h-16.78c-1.08,0-1.96-.88-1.96-1.96s.88-1.96,1.96-1.96h16.78c1.08,0,1.96,.88,1.96,1.96s-.88,1.96-1.96,1.96Z"/>
        <path id="Path_152" data-name="Path 152" class="cls-3" d="M105.36,219.52h-16.78c-1.08,0-1.96-.88-1.96-1.96s.88-1.96,1.96-1.96h16.78c1.08,0,1.96,.88,1.96,1.96s-.88,1.96-1.96,1.96Z"/>
        <path id="Path_153" data-name="Path 153" class="cls-3" d="M105.36,234.45h-16.78c-1.08,0-1.96-.88-1.96-1.96s.88-1.96,1.96-1.96h16.78c1.08,0,1.96,.88,1.96,1.96s-.88,1.96-1.96,1.96Z"/>
        <path id="Path_154" data-name="Path 154" class="cls-3" d="M105.36,249.56h-16.78c-1.08,0-1.96-.88-1.96-1.96s.88-1.96,1.96-1.96h16.78c1.08,0,1.96,.88,1.96,1.96s-.88,1.96-1.96,1.96Z"/>
      </g>
    </g>
  </g>
</svg>