<svg xmlns="http://www.w3.org/2000/svg" width="340" height="340" viewBox="0 0 340 340">
  <g id="map" transform="translate(-363 -1549)">
    <g id="Path_228" data-name="Path 228" transform="translate(363 1549)" fill="none">
      <path d="M170,0A170,170,0,1,1,0,170,170,170,0,0,1,170,0Z" stroke="none"/>
      <path d="M 170 20 C 87.28974914550781 20 20 87.28974914550781 20 170 C 20 252.7102508544922 87.28974914550781 320 170 320 C 252.7102508544922 320 320 252.7102508544922 320 170 C 320 87.28974914550781 252.7102508544922 20 170 20 M 170 0 C 263.8883666992188 0 340 76.11163330078125 340 170 C 340 263.8883666992188 263.8883666992188 340 170 340 C 76.11163330078125 340 0 263.8883666992188 0 170 C 0 76.11163330078125 76.11163330078125 0 170 0 Z" stroke="none" fill="#f0c807"/>
    </g>
    <g id="noun-map-4738546" transform="translate(352.526 1599.65)">
      <path id="Path_227" data-name="Path 227" d="M236.674,77.444a5.377,5.377,0,0,1,.217-.96,31.751,31.751,0,0,0,.8-6.7,33.681,33.681,0,0,0-67.363,0,31.763,31.763,0,0,0,.8,6.7,5.478,5.478,0,0,1,.217.96c2.147,8.962,7.44,19.73,13.522,30.122,6.343,10.849,13.592,21.3,19.143,28.989,5.546-7.7,12.8-18.14,19.143-28.989,6.077-10.4,11.37-21.166,13.522-30.122ZM204.009,44.327a25.826,25.826,0,1,0,.006,0Zm10.67,15.163A15.083,15.083,0,1,0,219.1,70.16a15.037,15.037,0,0,0-4.419-10.67ZM248.3,72.777h25.635a5.378,5.378,0,0,1,5.378,5.378V207.592a5.378,5.378,0,0,1-5.378,5.378H86.852a5.378,5.378,0,0,1-5.378-5.378V78.155a5.378,5.378,0,0,1,5.378-5.378h72.867c-.094-1.022-.137-2.018-.137-3a44.431,44.431,0,0,1,88.862,0c0,.971-.043,1.974-.137,3ZM161.934,83.528H123.069l24.15,39.837a5.347,5.347,0,0,1-1.807,7.346l-.13.075.006.013L92.225,161V199.27l70.97-32.3a5.368,5.368,0,0,1,7.217,2.154l18.294,33.1h49.055l-18.1-26.773.013-.013-.2-.328a5.345,5.345,0,0,1,1.974-7.3l47.135-27.157V83.53H246.1c-2.841,9.345-7.946,19.625-13.7,29.454a421.171,421.171,0,0,1-24.056,35.853,5.367,5.367,0,0,1-7.494,1.157,5.312,5.312,0,0,1-1.219-1.251,422.431,422.431,0,0,1-23.988-35.759c-5.749-9.829-10.856-20.107-13.7-29.454Zm9.2-7.042c.068.315.142.637.217.96Zm-60.57,7.042H92.224v65.138l42.991-24.472-24.65-40.666Zm1.022,118.695h64.855L163.4,178.636Zm139.122,0h17.861V153l-36.8,21.2Z" fill="#2b215e"/>
    </g>
  </g>
</svg>
