<svg xmlns="http://www.w3.org/2000/svg" xmlns:xlink="http://www.w3.org/1999/xlink" width="1080" height="288" viewBox="0 0 1080 288">
  <defs>
    <clipPath id="clip-path">
      <rect id="Rectangle_71" data-name="Rectangle 71" width="1080" height="288" transform="translate(0 147)" fill="#fff" stroke="#707070" stroke-width="1"/>
    </clipPath>
    <clipPath id="clip-path-2">
      <path id="Path_1" data-name="Path 1" d="M3.352,2.557V774.351H260.617V2.557Z" fill="none"/>
    </clipPath>
    <clipPath id="clip-path-3">
      <rect id="Rectangle_57" data-name="Rectangle 57" width="251.524" height="272.37" transform="translate(497.448 2.557)" fill="none"/>
    </clipPath>
  </defs>
  <g id="Mask_Group_1" data-name="Mask Group 1" transform="translate(0 -147)" clip-path="url(#clip-path)">
    <g id="TOPmobile" transform="translate(1083.352 423.716) rotate(180)">
      <rect id="Rectangle_1" data-name="Rectangle 1" width="238.069" height="357.104" transform="translate(259.379 2.557)" fill="#2b215e"/>
      <g id="Group_3" data-name="Group 3">
        <g id="Group_2" data-name="Group 2" clip-path="url(#clip-path-2)">
          <g id="Group_1" data-name="Group 1">
            <rect id="Rectangle_2" data-name="Rectangle 2" width="766.406" height="13.686" transform="matrix(0.623, -0.783, 0.783, 0.623, -553.673, 317.702)" fill="#2b215e"/>
            <rect id="Rectangle_3" data-name="Rectangle 3" width="766.406" height="13.686" transform="matrix(0.623, -0.783, 0.783, 0.623, -525.762, 339.906)" fill="#2b215e"/>
            <rect id="Rectangle_4" data-name="Rectangle 4" width="766.406" height="13.686" transform="matrix(0.623, -0.783, 0.783, 0.623, -497.851, 362.111)" fill="#2b215e"/>
            <rect id="Rectangle_5" data-name="Rectangle 5" width="766.406" height="13.686" transform="matrix(0.623, -0.783, 0.783, 0.623, -469.94, 384.315)" fill="#2b215e"/>
            <rect id="Rectangle_6" data-name="Rectangle 6" width="766.406" height="13.686" transform="matrix(0.623, -0.783, 0.783, 0.623, -442.029, 406.52)" fill="#2b215e"/>
            <rect id="Rectangle_7" data-name="Rectangle 7" width="766.406" height="13.686" transform="matrix(0.623, -0.783, 0.783, 0.623, -414.117, 428.724)" fill="#2b215e"/>
            <rect id="Rectangle_8" data-name="Rectangle 8" width="766.406" height="13.686" transform="matrix(0.623, -0.783, 0.783, 0.623, -386.206, 450.929)" fill="#2b215e"/>
            <rect id="Rectangle_9" data-name="Rectangle 9" width="766.406" height="13.686" transform="matrix(0.623, -0.783, 0.783, 0.623, -358.295, 473.133)" fill="#2b215e"/>
            <rect id="Rectangle_10" data-name="Rectangle 10" width="766.406" height="13.686" transform="matrix(0.623, -0.783, 0.783, 0.623, -330.384, 495.338)" fill="#2b215e"/>
            <rect id="Rectangle_11" data-name="Rectangle 11" width="766.406" height="13.686" transform="matrix(0.623, -0.783, 0.783, 0.623, -302.473, 517.542)" fill="#2b215e"/>
            <rect id="Rectangle_12" data-name="Rectangle 12" width="766.406" height="13.686" transform="matrix(0.623, -0.783, 0.783, 0.623, -274.562, 539.747)" fill="#2b215e"/>
            <rect id="Rectangle_13" data-name="Rectangle 13" width="766.406" height="13.686" transform="matrix(0.623, -0.783, 0.783, 0.623, -246.651, 561.951)" fill="#2b215e"/>
            <rect id="Rectangle_14" data-name="Rectangle 14" width="766.406" height="13.686" transform="matrix(0.623, -0.783, 0.783, 0.623, -218.74, 584.156)" fill="#2b215e"/>
            <rect id="Rectangle_15" data-name="Rectangle 15" width="766.406" height="13.686" transform="matrix(0.623, -0.783, 0.783, 0.623, -190.829, 606.36)" fill="#2b215e"/>
            <rect id="Rectangle_16" data-name="Rectangle 16" width="766.406" height="13.686" transform="matrix(0.623, -0.783, 0.783, 0.623, -162.918, 628.565)" fill="#2b215e"/>
            <rect id="Rectangle_17" data-name="Rectangle 17" width="766.406" height="13.686" transform="matrix(0.623, -0.783, 0.783, 0.623, -135.007, 650.769)" fill="#2b215e"/>
            <rect id="Rectangle_18" data-name="Rectangle 18" width="766.406" height="13.686" transform="matrix(0.623, -0.783, 0.783, 0.623, -107.096, 672.974)" fill="#2b215e"/>
            <rect id="Rectangle_19" data-name="Rectangle 19" width="766.406" height="13.686" transform="matrix(0.623, -0.783, 0.783, 0.623, -79.184, 695.178)" fill="#2b215e"/>
            <rect id="Rectangle_20" data-name="Rectangle 20" width="766.406" height="13.686" transform="matrix(0.623, -0.783, 0.783, 0.623, -51.273, 717.383)" fill="#2b215e"/>
            <rect id="Rectangle_21" data-name="Rectangle 21" width="766.406" height="13.686" transform="matrix(0.623, -0.783, 0.783, 0.623, -23.362, 739.587)" fill="#2b215e"/>
            <rect id="Rectangle_22" data-name="Rectangle 22" width="766.406" height="13.686" transform="matrix(0.623, -0.783, 0.783, 0.623, 4.549, 761.792)" fill="#2b215e"/>
            <rect id="Rectangle_23" data-name="Rectangle 23" width="766.406" height="13.686" transform="matrix(0.623, -0.783, 0.783, 0.623, 32.46, 783.996)" fill="#2b215e"/>
            <rect id="Rectangle_24" data-name="Rectangle 24" width="766.406" height="13.686" transform="matrix(0.623, -0.783, 0.783, 0.623, 60.371, 806.201)" fill="#2b215e"/>
            <rect id="Rectangle_25" data-name="Rectangle 25" width="766.406" height="13.686" transform="matrix(0.623, -0.783, 0.783, 0.623, 88.282, 828.405)" fill="#2b215e"/>
            <rect id="Rectangle_26" data-name="Rectangle 26" width="766.406" height="13.686" transform="matrix(0.623, -0.783, 0.783, 0.623, 116.193, 850.61)" fill="#2b215e"/>
            <rect id="Rectangle_27" data-name="Rectangle 27" width="766.406" height="13.686" transform="matrix(0.623, -0.783, 0.783, 0.623, 144.104, 872.814)" fill="#2b215e"/>
            <rect id="Rectangle_28" data-name="Rectangle 28" width="766.406" height="13.686" transform="matrix(0.623, -0.783, 0.783, 0.623, 172.015, 895.019)" fill="#2b215e"/>
            <rect id="Rectangle_29" data-name="Rectangle 29" width="766.406" height="13.686" transform="matrix(0.623, -0.783, 0.783, 0.623, 199.926, 917.223)" fill="#2b215e"/>
            <rect id="Rectangle_30" data-name="Rectangle 30" width="766.406" height="13.686" transform="matrix(0.623, -0.783, 0.783, 0.623, 227.837, 939.428)" fill="#2b215e"/>
            <rect id="Rectangle_31" data-name="Rectangle 31" width="766.406" height="13.686" transform="matrix(0.623, -0.783, 0.783, 0.623, 255.749, 961.632)" fill="#2b215e"/>
            <rect id="Rectangle_32" data-name="Rectangle 32" width="766.406" height="13.686" transform="matrix(0.623, -0.783, 0.783, 0.623, 283.66, 983.837)" fill="#2b215e"/>
            <rect id="Rectangle_33" data-name="Rectangle 33" width="766.406" height="13.686" transform="matrix(0.623, -0.783, 0.783, 0.623, 311.571, 1006.041)" fill="#2b215e"/>
            <rect id="Rectangle_34" data-name="Rectangle 34" width="766.406" height="13.686" transform="matrix(0.623, -0.783, 0.783, 0.623, 339.482, 1028.246)" fill="#2b215e"/>
            <rect id="Rectangle_35" data-name="Rectangle 35" width="766.406" height="13.686" transform="matrix(0.623, -0.783, 0.783, 0.623, 367.393, 1050.45)" fill="#2b215e"/>
          </g>
        </g>
      </g>
      <g id="Group_4" data-name="Group 4">
        <circle id="Ellipse_1" data-name="Ellipse 1" cx="127.394" cy="127.394" r="127.394" transform="translate(4.591 2.557)" fill="#f0c807"/>
        <circle id="Ellipse_2" data-name="Ellipse 2" cx="73.923" cy="73.923" r="73.923" transform="translate(58.061 56.028)" fill="#f04770"/>
      </g>
      <path id="Path_2" data-name="Path 2" d="M260.617,774.351H3.352V518.325Z" fill="#2b215e"/>
      <g id="Group_15" data-name="Group 15">
        <g id="Group_8" data-name="Group 8">
          <g id="Group_6" data-name="Group 6">
            <path id="Path_3" data-name="Path 3" d="M378.413,2.557V62.075h59.518A59.518,59.518,0,0,0,378.413,2.557Z" fill="#f0c807"/>
            <path id="Path_4" data-name="Path 4" d="M437.931,2.557V62.075h59.517A59.518,59.518,0,0,0,437.931,2.557Z" fill="#f0c807"/>
            <path id="Path_5" data-name="Path 5" d="M259.379,2.557V62.075H318.9A59.518,59.518,0,0,0,259.379,2.557Z" fill="#f0c807"/>
            <path id="Path_6" data-name="Path 6" d="M318.9,2.557V62.075h59.517A59.518,59.518,0,0,0,318.9,2.557Z" fill="#f0c807"/>
          </g>
          <g id="Group_7" data-name="Group 7">
            <path id="Path_7" data-name="Path 7" d="M378.413,62.075v59.517h59.518A59.517,59.517,0,0,0,378.413,62.075Z" fill="#f0c807"/>
            <path id="Path_8" data-name="Path 8" d="M437.931,62.075v59.517h59.517A59.517,59.517,0,0,0,437.931,62.075Z" fill="#f0c807"/>
            <path id="Path_9" data-name="Path 9" d="M259.379,62.075v59.517H318.9A59.517,59.517,0,0,0,259.379,62.075Z" fill="#f0c807"/>
            <path id="Path_10" data-name="Path 10" d="M318.9,62.075v59.517h59.517A59.517,59.517,0,0,0,318.9,62.075Z" fill="#f0c807"/>
          </g>
        </g>
        <g id="Group_11" data-name="Group 11">
          <g id="Group_9" data-name="Group 9">
            <path id="Path_11" data-name="Path 11" d="M378.413,121.592v59.517h59.518A59.518,59.518,0,0,0,378.413,121.592Z" fill="#f0c807"/>
            <path id="Path_12" data-name="Path 12" d="M437.931,121.592v59.517h59.517A59.517,59.517,0,0,0,437.931,121.592Z" fill="#f0c807"/>
            <path id="Path_13" data-name="Path 13" d="M259.379,121.592v59.517H318.9A59.517,59.517,0,0,0,259.379,121.592Z" fill="#f0c807"/>
            <path id="Path_14" data-name="Path 14" d="M318.9,121.592v59.517h59.517A59.517,59.517,0,0,0,318.9,121.592Z" fill="#f0c807"/>
          </g>
          <g id="Group_10" data-name="Group 10">
            <path id="Path_15" data-name="Path 15" d="M378.413,181.109v59.518h59.518A59.518,59.518,0,0,0,378.413,181.109Z" fill="#f0c807"/>
            <path id="Path_16" data-name="Path 16" d="M437.931,181.109v59.518h59.517A59.518,59.518,0,0,0,437.931,181.109Z" fill="#f0c807"/>
            <path id="Path_17" data-name="Path 17" d="M259.379,181.109v59.518H318.9A59.518,59.518,0,0,0,259.379,181.109Z" fill="#f0c807"/>
            <path id="Path_18" data-name="Path 18" d="M318.9,181.109v59.518h59.517A59.518,59.518,0,0,0,318.9,181.109Z" fill="#f0c807"/>
          </g>
        </g>
        <g id="Group_14" data-name="Group 14">
          <g id="Group_12" data-name="Group 12">
            <path id="Path_19" data-name="Path 19" d="M378.413,240.627v59.517h59.518A59.517,59.517,0,0,0,378.413,240.627Z" fill="#f0c807"/>
            <path id="Path_20" data-name="Path 20" d="M437.931,240.627v59.517h59.517A59.517,59.517,0,0,0,437.931,240.627Z" fill="#f0c807"/>
            <path id="Path_21" data-name="Path 21" d="M259.379,240.627v59.517H318.9A59.517,59.517,0,0,0,259.379,240.627Z" fill="#f0c807"/>
            <path id="Path_22" data-name="Path 22" d="M318.9,240.627v59.517h59.517A59.517,59.517,0,0,0,318.9,240.627Z" fill="#f0c807"/>
          </g>
          <g id="Group_13" data-name="Group 13">
            <path id="Path_23" data-name="Path 23" d="M378.413,300.144v59.517h59.518A59.518,59.518,0,0,0,378.413,300.144Z" fill="#f0c807"/>
            <path id="Path_24" data-name="Path 24" d="M437.931,300.144v59.517h59.517A59.517,59.517,0,0,0,437.931,300.144Z" fill="#f0c807"/>
            <path id="Path_25" data-name="Path 25" d="M259.379,300.144v59.517H318.9A59.517,59.517,0,0,0,259.379,300.144Z" fill="#f0c807"/>
            <path id="Path_26" data-name="Path 26" d="M318.9,300.144v59.517h59.517A59.517,59.517,0,0,0,318.9,300.144Z" fill="#f0c807"/>
          </g>
        </g>
      </g>
      <rect id="Rectangle_36" data-name="Rectangle 36" width="238.069" height="414.69" transform="translate(263.379 357.189)" fill="#fff0cf"/>
      <path id="Path_27" data-name="Path 27" d="M259.379,771.879V357.189H497.448Z" fill="#f04770"/>
      <path id="Path_28" data-name="Path 28" d="M378.413,492.486a56.572,56.572,0,1,0,56.572,56.572A56.572,56.572,0,0,0,378.413,492.486Zm0,96.607a40.035,40.035,0,1,1,40.035-40.035A40.035,40.035,0,0,1,378.413,589.093Z" fill="#fff"/>
      <rect id="Rectangle_37" data-name="Rectangle 37" width="251.524" height="168.37" transform="translate(497.448 274.927)" fill="#fff0cf"/>
      <g id="Group_16" data-name="Group 16">
        <path id="Path_29" data-name="Path 29" d="M497.448,274.927V442.61a83.841,83.841,0,0,0,0-167.683Z" fill="#2b215e"/>
        <path id="Path_30" data-name="Path 30" d="M581.289,274.927V442.61a83.841,83.841,0,1,0,0-167.683Z" fill="#2b215e"/>
        <path id="Path_31" data-name="Path 31" d="M665.131,274.927V442.61a83.841,83.841,0,0,0,0-167.683Z" fill="#2b215e"/>
      </g>
      <rect id="Rectangle_38" data-name="Rectangle 38" width="251.524" height="272.37" transform="translate(497.448 2.557)" fill="#f04770"/>
      <g id="Group_19" data-name="Group 19">
        <g id="Group_18" data-name="Group 18" clip-path="url(#clip-path-3)">
          <g id="Group_17" data-name="Group 17">
            <rect id="Rectangle_39" data-name="Rectangle 39" width="13.422" height="360.037" transform="matrix(0.585, -0.811, 0.811, 0.585, 312.462, 267.022)" fill="#fff0cf"/>
            <rect id="Rectangle_40" data-name="Rectangle 40" width="13.422" height="360.037" transform="matrix(0.585, -0.811, 0.811, 0.585, 331.388, 240.811)" fill="#fff0cf"/>
            <rect id="Rectangle_41" data-name="Rectangle 41" width="13.422" height="360.037" transform="matrix(0.585, -0.811, 0.811, 0.585, 350.314, 214.601)" fill="#fff0cf"/>
            <rect id="Rectangle_42" data-name="Rectangle 42" width="13.422" height="360.037" transform="matrix(0.585, -0.811, 0.811, 0.585, 369.24, 188.39)" fill="#fff0cf"/>
            <rect id="Rectangle_43" data-name="Rectangle 43" width="13.422" height="360.037" transform="matrix(0.585, -0.811, 0.811, 0.585, 388.166, 162.179)" fill="#fff0cf"/>
            <rect id="Rectangle_44" data-name="Rectangle 44" width="13.422" height="360.037" transform="matrix(0.585, -0.811, 0.811, 0.585, 407.093, 135.969)" fill="#fff0cf"/>
            <rect id="Rectangle_45" data-name="Rectangle 45" width="13.422" height="360.037" transform="matrix(0.585, -0.811, 0.811, 0.585, 426.019, 109.758)" fill="#fff0cf"/>
            <rect id="Rectangle_46" data-name="Rectangle 46" width="13.422" height="360.037" transform="matrix(0.585, -0.811, 0.811, 0.585, 444.945, 83.547)" fill="#fff0cf"/>
            <rect id="Rectangle_47" data-name="Rectangle 47" width="13.422" height="360.037" transform="matrix(0.585, -0.811, 0.811, 0.585, 463.871, 57.337)" fill="#fff0cf"/>
            <rect id="Rectangle_48" data-name="Rectangle 48" width="13.422" height="360.037" transform="matrix(0.585, -0.811, 0.811, 0.585, 482.797, 31.126)" fill="#fff0cf"/>
            <rect id="Rectangle_49" data-name="Rectangle 49" width="13.422" height="360.037" transform="matrix(0.585, -0.811, 0.811, 0.585, 501.723, 4.916)" fill="#fff0cf"/>
            <rect id="Rectangle_50" data-name="Rectangle 50" width="13.422" height="360.037" transform="matrix(0.585, -0.811, 0.811, 0.585, 520.649, -21.295)" fill="#fff0cf"/>
            <rect id="Rectangle_51" data-name="Rectangle 51" width="13.422" height="360.037" transform="matrix(0.585, -0.811, 0.811, 0.585, 539.576, -47.506)" fill="#fff0cf"/>
            <rect id="Rectangle_52" data-name="Rectangle 52" width="13.422" height="360.037" transform="matrix(0.585, -0.811, 0.811, 0.585, 558.502, -73.716)" fill="#fff0cf"/>
            <rect id="Rectangle_53" data-name="Rectangle 53" width="13.422" height="360.037" transform="matrix(0.585, -0.811, 0.811, 0.585, 577.428, -99.927)" fill="#fff0cf"/>
            <rect id="Rectangle_54" data-name="Rectangle 54" width="13.422" height="360.037" transform="matrix(0.585, -0.811, 0.811, 0.585, 596.354, -126.137)" fill="#fff0cf"/>
            <rect id="Rectangle_55" data-name="Rectangle 55" width="13.422" height="360.037" transform="matrix(0.585, -0.811, 0.811, 0.585, 615.28, -152.348)" fill="#fff0cf"/>
            <rect id="Rectangle_56" data-name="Rectangle 56" width="13.422" height="360.037" transform="matrix(0.585, -0.811, 0.811, 0.585, 634.206, -178.559)" fill="#fff0cf"/>
          </g>
        </g>
      </g>
      <rect id="Rectangle_58" data-name="Rectangle 58" width="115.171" height="115.171" transform="translate(565.625 81.157)" fill="#2b215e"/>
      <rect id="Rectangle_59" data-name="Rectangle 59" width="334.38" height="346.589" transform="translate(748.972 2.63)" fill="#f0c807"/>
      <path id="Path_32" data-name="Path 32" d="M916.162,116.107,748.972,2.63h334.38Z" fill="#f04770"/>
      <path id="Path_33" data-name="Path 33" d="M916.162,232.663,748.972,119.186h334.38Z" fill="#f04770"/>
      <path id="Path_34" data-name="Path 34" d="M916.162,349.219,748.972,235.743h334.38Z" fill="#f04770"/>
      <rect id="Rectangle_60" data-name="Rectangle 60" width="334.38" height="93.391" transform="translate(748.972 349.219)" fill="#2b215e"/>
      <path id="Rectangle_61" data-name="Rectangle 61" d="M93.391,0H334.38a0,0,0,0,1,0,0V0a93.391,93.391,0,0,1-93.391,93.391H0a0,0,0,0,1,0,0v0A93.391,93.391,0,0,1,93.391,0Z" transform="translate(748.972 349.219)" fill="#f04770"/>
      <path id="Path_90" data-name="Path 90" d="M343.205,492.486a21.364,21.364,0,1,0,21.364,21.364A21.364,21.364,0,0,0,343.205,492.486Zm0,36.483a15.119,15.119,0,1,1,15.119-15.119A15.119,15.119,0,0,1,343.205,528.969Z" transform="translate(481.177 -419.106)" fill="#fff"/>
      <path id="Path_91" data-name="Path 91" d="M343.205,492.486a21.364,21.364,0,1,0,21.364,21.364A21.364,21.364,0,0,0,343.205,492.486Zm0,36.483a15.119,15.119,0,1,1,15.119-15.119A15.119,15.119,0,0,1,343.205,528.969Z" transform="translate(572.957 -302.55)" fill="#fff"/>
      <path id="Path_92" data-name="Path 92" d="M343.205,492.486a21.364,21.364,0,1,0,21.364,21.364A21.364,21.364,0,0,0,343.205,492.486Zm0,36.483a15.119,15.119,0,1,1,15.119-15.119A15.119,15.119,0,0,1,343.205,528.969Z" transform="translate(672.957 -185.994)" fill="#fff"/>
    </g>
  </g>
</svg>
