<?xml version="1.0" encoding="UTF-8"?><svg id="b" xmlns="http://www.w3.org/2000/svg" xmlns:xlink="http://www.w3.org/1999/xlink" viewBox="0 0 1637.03 1341.37"><defs><style>.du{fill:#2b215e;}.dv{fill:#fff;}.dw{clip-path:url(#e);}.dw,.dx{fill:none;}.dy{fill:#fff0cf;}.dz{clip-path:url(#d);}.ea{clip-path:url(#cp);}.eb{clip-path:url(#i);}.ec{fill:#f04770;}.ed{fill:#f0c807;}</style><clipPath id="e"><rect class="dx" y="785.03" width="1080" height="271.32"/></clipPath><clipPath id="d"><rect class="dw" x=".5" y="785.5" width="1079" height="270.38"/></clipPath><clipPath id="i"><rect class="dx" x="822.74" y="284.63" width="257.27" height="771.79"/></clipPath><clipPath id="cp"><rect class="dx" x="334.38" y="784.05" width="251.52" height="272.37"/></clipPath></defs><g id="c"><g class="dz"><g id="f"><rect id="g" class="du" x="585.9" y="699.32" width="238.07" height="357.1"/><g id="h"><g class="eb"><g id="j"><g id="k"><rect id="l" class="du" x="1009.5" y="1030.21" width="766.87" height="13.69" transform="translate(-285.86 1481.37) rotate(-51.49)"/><rect id="m" class="du" x="981.58" y="1008.01" width="766.87" height="13.69" transform="translate(-279.02 1451.15) rotate(-51.49)"/><rect id="n" class="du" x="953.67" y="985.8" width="766.87" height="13.69" transform="translate(-272.17 1420.93) rotate(-51.49)"/><rect id="o" class="du" x="925.76" y="963.6" width="766.87" height="13.69" transform="translate(-265.33 1390.7) rotate(-51.49)"/><rect id="p" class="du" x="897.85" y="941.39" width="766.87" height="13.69" transform="translate(-258.49 1360.48) rotate(-51.49)"/><rect id="q" class="du" x="869.94" y="919.19" width="766.87" height="13.69" transform="translate(-251.65 1330.26) rotate(-51.49)"/><rect id="r" class="du" x="842.03" y="896.98" width="766.87" height="13.69" transform="translate(-244.81 1300.04) rotate(-51.49)"/><rect id="s" class="du" x="814.12" y="874.78" width="766.87" height="13.69" transform="translate(-237.96 1269.82) rotate(-51.49)"/><rect id="t" class="du" x="786.21" y="852.58" width="766.87" height="13.69" transform="translate(-231.12 1239.6) rotate(-51.49)"/><rect id="u" class="du" x="758.3" y="830.37" width="766.87" height="13.69" transform="translate(-224.28 1209.38) rotate(-51.49)"/><rect id="v" class="du" x="730.38" y="808.17" width="766.87" height="13.69" transform="translate(-217.44 1179.16) rotate(-51.49)"/><rect id="w" class="du" x="702.47" y="785.96" width="766.87" height="13.69" transform="translate(-210.59 1148.94) rotate(-51.49)"/><rect id="x" class="du" x="674.56" y="763.76" width="766.87" height="13.69" transform="translate(-203.75 1118.72) rotate(-51.49)"/><rect id="y" class="du" x="646.65" y="741.55" width="766.87" height="13.69" transform="translate(-196.91 1088.5) rotate(-51.49)"/><rect id="z" class="du" x="618.74" y="719.35" width="766.87" height="13.69" transform="translate(-190.07 1058.28) rotate(-51.49)"/><rect id="aa" class="du" x="590.83" y="697.14" width="766.87" height="13.69" transform="translate(-183.22 1028.06) rotate(-51.49)"/><rect id="ab" class="du" x="562.92" y="674.94" width="766.87" height="13.69" transform="translate(-176.38 997.84) rotate(-51.49)"/><rect id="ac" class="du" x="535.01" y="652.74" width="766.87" height="13.69" transform="translate(-169.54 967.62) rotate(-51.49)"/><rect id="ad" class="du" x="507.1" y="630.53" width="766.87" height="13.69" transform="translate(-162.7 937.4) rotate(-51.49)"/><rect id="ae" class="du" x="479.18" y="608.33" width="766.87" height="13.69" transform="translate(-155.85 907.17) rotate(-51.49)"/><rect id="af" class="du" x="451.27" y="586.12" width="766.87" height="13.69" transform="translate(-149.01 876.95) rotate(-51.49)"/><rect id="ag" class="du" x="423.36" y="563.92" width="766.87" height="13.69" transform="translate(-142.17 846.73) rotate(-51.49)"/><rect id="ah" class="du" x="395.45" y="541.71" width="766.87" height="13.69" transform="translate(-135.33 816.51) rotate(-51.49)"/><rect id="ai" class="du" x="367.54" y="519.51" width="766.87" height="13.69" transform="translate(-128.48 786.29) rotate(-51.49)"/><rect id="aj" class="du" x="339.63" y="497.3" width="766.87" height="13.69" transform="translate(-121.64 756.07) rotate(-51.49)"/><rect id="ak" class="du" x="311.72" y="475.1" width="766.87" height="13.69" transform="translate(-114.8 725.85) rotate(-51.49)"/><rect id="al" class="du" x="283.81" y="452.89" width="766.87" height="13.69" transform="translate(-107.96 695.63) rotate(-51.49)"/><rect id="am" class="du" x="255.9" y="430.69" width="766.87" height="13.69" transform="translate(-101.11 665.41) rotate(-51.49)"/><rect id="an" class="du" x="227.99" y="408.49" width="766.87" height="13.69" transform="translate(-94.27 635.19) rotate(-51.49)"/><rect id="ao" class="du" x="200.07" y="386.28" width="766.87" height="13.69" transform="translate(-87.43 604.97) rotate(-51.49)"/><rect id="ap" class="du" x="172.16" y="364.08" width="766.87" height="13.69" transform="translate(-80.59 574.75) rotate(-51.49)"/><rect id="aq" class="du" x="144.25" y="341.87" width="766.87" height="13.69" transform="translate(-73.74 544.53) rotate(-51.49)"/><rect id="ar" class="du" x="116.34" y="319.67" width="766.87" height="13.69" transform="translate(-66.9 514.31) rotate(-51.49)"/><rect id="as" class="du" x="88.43" y="297.46" width="766.87" height="13.69" transform="translate(-60.06 484.09) rotate(-51.49)"/></g></g></g></g><g id="at"><circle id="au" class="ed" cx="951.37" cy="929.03" r="127.39"/><circle id="av" class="ec" cx="951.37" cy="929.03" r="73.92"/></g><path id="aw" class="du" d="M822.74,284.63h257.27v256.03l-257.27-256.03Z"/><g id="ax"><g id="ay"><g id="az"><path id="ba" class="ed" d="M704.94,1056.42v-59.52h-59.52c0,32.87,26.65,59.52,59.52,59.52h0Z"/><path id="bb" class="ed" d="M645.42,1056.42v-59.52h-59.52c0,32.87,26.65,59.52,59.52,59.52Z"/><path id="bc" class="ed" d="M823.97,1056.42v-59.52h-59.52c0,32.87,26.65,59.52,59.52,59.52,0,0,0,0,0,0Z"/><path id="bd" class="ed" d="M764.45,1056.42v-59.52h-59.52c0,32.87,26.65,59.52,59.52,59.52Z"/></g><g id="be"><path id="bf" class="ed" d="M704.94,996.9v-59.52h-59.52c0,32.87,26.65,59.52,59.52,59.52h0Z"/><path id="bg" class="ed" d="M645.42,996.9v-59.52h-59.52c0,32.87,26.65,59.52,59.52,59.52Z"/><path id="bh" class="ed" d="M823.97,996.9v-59.52h-59.52c0,32.87,26.65,59.52,59.52,59.52h0Z"/><path id="bi" class="ed" d="M764.45,996.9v-59.52h-59.52c0,32.87,26.65,59.52,59.52,59.52Z"/></g></g><g id="bj"><g id="bk"><path id="bl" class="ed" d="M704.94,937.38v-59.52h-59.52c0,32.87,26.65,59.52,59.52,59.52Z"/><path id="bm" class="ed" d="M645.42,937.38v-59.52h-59.52c0,32.87,26.65,59.52,59.52,59.52h0Z"/><path id="bn" class="ed" d="M823.97,937.38v-59.52h-59.52c0,32.87,26.65,59.52,59.52,59.52h0Z"/><path id="bo" class="ed" d="M764.45,937.38v-59.52h-59.52c0,32.87,26.65,59.52,59.52,59.52h0Z"/></g><g id="bp"><path id="bq" class="ed" d="M704.94,877.87v-59.52h-59.52c0,32.87,26.65,59.52,59.52,59.52h0Z"/><path id="br" class="ed" d="M645.42,877.87v-59.52h-59.52c0,32.87,26.65,59.52,59.52,59.52Z"/><path id="bs" class="ed" d="M823.97,877.87v-59.52h-59.52c0,32.87,26.65,59.52,59.52,59.52h0Z"/><path id="bt" class="ed" d="M764.45,877.87v-59.52h-59.52c0,32.87,26.65,59.52,59.52,59.52Z"/></g></g><g id="bu"><g id="bv"><path id="bw" class="ed" d="M704.94,818.35v-59.52h-59.52c0,32.87,26.65,59.52,59.52,59.52h0Z"/><path id="bx" class="ed" d="M645.42,818.35v-59.52h-59.52c0,32.87,26.65,59.52,59.52,59.52Z"/><path id="by" class="ed" d="M823.97,818.35v-59.52h-59.52c0,32.87,26.65,59.52,59.52,59.52h0Z"/><path id="bz" class="ed" d="M764.45,818.35v-59.52h-59.52c0,32.87,26.65,59.52,59.52,59.52Z"/></g><g id="ca"><path id="cb" class="ed" d="M704.94,758.83v-59.52h-59.52c0,32.87,26.65,59.52,59.52,59.52Z"/><path id="cc" class="ed" d="M645.42,758.83v-59.52h-59.52c0,32.87,26.65,59.52,59.52,59.52Z"/><path id="cd" class="ed" d="M823.97,758.83v-59.52h-59.52c0,32.87,26.65,59.52,59.52,59.52h0Z"/><path id="ce" class="ed" d="M764.45,758.83v-59.52h-59.52c0,32.87,26.65,59.52,59.52,59.52Z"/></g></g></g><rect id="cf" class="dy" x="581.9" y="287.1" width="238.07" height="414.69"/><path id="cg" class="ec" d="M823.97,287.1v414.69h-238.07l238.07-414.69Z"/><path id="ch" class="dv" d="M704.94,566.49c31.24,0,56.57-25.33,56.57-56.57s-25.33-56.57-56.57-56.57-56.57,25.33-56.57,56.57h0c0,31.24,25.33,56.57,56.57,56.57Zm0-96.61c22.11,0,40.04,17.92,40.04,40.04s-17.92,40.03-40.04,40.03-40.04-17.92-40.04-40.04h0c0-22.11,17.92-40.03,40.04-40.03Z"/><rect id="ci" class="dy" x="334.38" y="615.68" width="251.52" height="168.37"/><g id="cj"><path id="ck" class="du" d="M585.9,784.05v-167.68c-46.3,0-83.84,37.54-83.84,83.84s37.54,83.84,83.84,83.84Z"/><path id="cl" class="du" d="M502.06,784.05v-167.68c-46.3,0-83.84,37.54-83.84,83.84s37.54,83.84,83.84,83.84Z"/><path id="cm" class="du" d="M418.22,784.05v-167.68c-46.3,0-83.84,37.54-83.84,83.84s37.54,83.84,83.84,83.84Z"/></g><rect id="cn" class="ec" x="334.38" y="784.05" width="251.52" height="272.37"/><g id="co"><g class="ea"><g id="cq"><g id="cr"><rect id="cs" class="dy" x="614.26" y="512.07" width="13.42" height="360.03" transform="translate(-303.6 790.82) rotate(-54.2)"/><rect id="ct" class="dy" x="595.33" y="538.28" width="13.42" height="360.03" transform="translate(-332.72 786.35) rotate(-54.2)"/><rect id="cu" class="dy" x="576.41" y="564.49" width="13.42" height="360.03" transform="translate(-361.83 781.88) rotate(-54.2)"/><rect id="cv" class="dy" x="557.48" y="590.7" width="13.42" height="360.03" transform="translate(-390.94 777.41) rotate(-54.2)"/><rect id="cw" class="dy" x="538.55" y="616.92" width="13.42" height="360.03" transform="translate(-420.05 772.93) rotate(-54.2)"/><rect id="cx" class="dy" x="519.63" y="643.13" width="13.42" height="360.03" transform="translate(-449.16 768.46) rotate(-54.2)"/><rect id="cy" class="dy" x="500.7" y="669.34" width="13.42" height="360.03" transform="translate(-478.27 763.99) rotate(-54.2)"/><rect id="cz" class="dy" x="481.78" y="695.55" width="13.42" height="360.03" transform="translate(-507.39 759.52) rotate(-54.2)"/><rect id="da" class="dy" x="462.85" y="721.76" width="13.42" height="360.03" transform="translate(-536.5 755.04) rotate(-54.2)"/><rect id="db" class="dy" x="443.92" y="747.97" width="13.42" height="360.03" transform="translate(-565.61 750.57) rotate(-54.2)"/><rect id="dc" class="dy" x="425" y="774.18" width="13.42" height="360.03" transform="translate(-594.72 746.1) rotate(-54.2)"/><rect id="dd" class="dy" x="406.07" y="800.39" width="13.42" height="360.03" transform="translate(-623.83 741.63) rotate(-54.2)"/><rect id="de" class="dy" x="387.14" y="826.6" width="13.42" height="360.03" transform="translate(-652.94 737.15) rotate(-54.2)"/><rect id="df" class="dy" x="368.22" y="852.81" width="13.42" height="360.03" transform="translate(-682.05 732.68) rotate(-54.2)"/><rect id="dg" class="dy" x="349.29" y="879.02" width="13.42" height="360.03" transform="translate(-711.17 728.21) rotate(-54.2)"/><rect id="dh" class="dy" x="330.37" y="905.23" width="13.42" height="360.03" transform="translate(-740.28 723.74) rotate(-54.2)"/><rect id="di" class="dy" x="311.44" y="931.44" width="13.42" height="360.03" transform="translate(-769.39 719.26) rotate(-54.2)"/><rect id="dj" class="dy" x="292.51" y="957.65" width="13.42" height="360.03" transform="translate(-798.5 714.79) rotate(-54.2)"/></g></g></g></g><rect id="dk" class="du" x="402.56" y="862.65" width="115.17" height="115.17"/><rect id="dl" class="ed" x="0" y="709.76" width="334.38" height="346.59"/><path id="dm" class="ec" d="M167.19,942.87l167.19,113.48H0l167.19-113.48Z"/><path id="dn" class="ec" d="M167.19,826.31l167.19,113.48H0l167.19-113.48Z"/><path id="do" class="ec" d="M167.19,709.76l167.19,113.48H0l167.19-113.48Z"/><rect id="dp" class="du" x="0" y="616.37" width="334.38" height="93.39"/><path id="dq" class="ec" d="M240.99,709.76H0C0,658.18,41.81,616.37,93.39,616.37h240.99c0,51.58-41.81,93.39-93.39,93.39Z"/><path id="dr" class="dv" d="M258.97,985.6c11.8,0,21.36-9.57,21.36-21.36s-9.57-21.36-21.36-21.36-21.36,9.57-21.36,21.36h0c0,11.8,9.57,21.36,21.36,21.36Zm0-36.48c8.35,0,15.12,6.77,15.12,15.12s-6.77,15.12-15.12,15.12-15.12-6.77-15.12-15.12,6.77-15.12,15.12-15.12h0Z"/><path id="ds" class="dv" d="M167.19,869.04c11.8,0,21.36-9.57,21.36-21.36s-9.57-21.36-21.36-21.36-21.36,9.57-21.36,21.36h0c0,11.8,9.57,21.36,21.36,21.36Zm0-36.48c8.35,0,15.12,6.77,15.12,15.12s-6.77,15.12-15.12,15.12-15.12-6.77-15.12-15.12,6.77-15.12,15.12-15.12h0Z"/><path id="dt" class="dv" d="M67.19,752.48c11.8,0,21.36-9.57,21.36-21.36s-9.57-21.36-21.36-21.36-21.36,9.57-21.36,21.36h0c0,11.8,9.57,21.36,21.36,21.36Zm0-36.48c8.35,0,15.12,6.77,15.12,15.12s-6.77,15.12-15.12,15.12-15.12-6.77-15.12-15.12,6.77-15.12,15.12-15.12h0Z"/></g></g></g></svg>