<?xml version="1.0" encoding="UTF-8"?><svg id="b" xmlns="http://www.w3.org/2000/svg" viewBox="0 0 782.68 391.13"><defs><style>.h{fill:#2b215e;}.i{isolation:isolate;}.j{fill:#f04770;}.k{fill:none;stroke:#f0c807;stroke-linecap:round;stroke-width:3px;}.l{fill:#f0c807;}</style></defs><g id="c"><g class="i"><path class="j" d="M123.46,302.96c-3.31-.96-5.96-2.21-7.96-3.74l3.52-7.8c1.92,1.41,4.2,2.54,6.85,3.39,2.64,.85,5.29,1.28,7.93,1.28,2.94,0,5.12-.44,6.52-1.31,1.41-.87,2.11-2.04,2.11-3.49,0-1.07-.42-1.95-1.25-2.65-.83-.7-1.9-1.27-3.2-1.7-1.3-.43-3.06-.9-5.28-1.41-3.41-.81-6.21-1.62-8.38-2.43-2.17-.81-4.04-2.11-5.6-3.9-1.56-1.79-2.33-4.18-2.33-7.17,0-2.6,.7-4.96,2.11-7.07s3.53-3.78,6.37-5.02c2.84-1.24,6.3-1.85,10.4-1.85,2.86,0,5.65,.34,8.38,1.02,2.73,.68,5.12,1.66,7.17,2.94l-3.2,7.87c-4.14-2.35-8.27-3.52-12.41-3.52-2.9,0-5.04,.47-6.43,1.41-1.39,.94-2.08,2.17-2.08,3.71s.8,2.68,2.4,3.42c1.6,.75,4.04,1.48,7.32,2.21,3.41,.81,6.21,1.62,8.38,2.43,2.18,.81,4.04,2.09,5.6,3.84,1.56,1.75,2.33,4.12,2.33,7.1,0,2.56-.71,4.89-2.14,7-1.43,2.11-3.57,3.79-6.43,5.02-2.86,1.24-6.33,1.86-10.43,1.86-3.54,0-6.96-.48-10.27-1.44Z"/><path class="j" d="M164.79,299.09c-3.56-3.54-5.34-8.59-5.34-15.16v-25.08h10.36v24.69c0,8.02,3.33,12.03,9.98,12.03,3.24,0,5.71-.97,7.42-2.91,1.71-1.94,2.56-4.98,2.56-9.12v-24.69h10.24v25.08c0,6.57-1.78,11.62-5.34,15.16-3.56,3.54-8.54,5.31-14.94,5.31s-11.38-1.77-14.94-5.31Z"/><path class="j" d="M251.31,258.85v44.78h-8.51l-22.33-27.19v27.19h-10.24v-44.78h8.57l22.26,27.19v-27.19h10.24Z"/><path class="j" d="M261.93,258.85h20.34c4.86,0,9.16,.93,12.89,2.78,3.73,1.86,6.63,4.47,8.7,7.84,2.07,3.37,3.1,7.29,3.1,11.77s-1.03,8.4-3.1,11.77c-2.07,3.37-4.97,5.98-8.7,7.84-3.73,1.86-8.03,2.78-12.89,2.78h-20.34v-44.78Zm19.83,36.27c4.48,0,8.05-1.25,10.72-3.74,2.66-2.49,4-5.87,4-10.14s-1.33-7.64-4-10.14c-2.67-2.5-6.24-3.74-10.72-3.74h-9.47v27.76h9.47Z"/><path class="j" d="M343.62,294.04h-20.79l-3.97,9.6h-10.62l19.96-44.78h10.24l20.02,44.78h-10.88l-3.97-9.6Zm-3.26-7.87l-7.1-17.14-7.1,17.14h14.2Z"/><path class="j" d="M381.87,287.77v15.87h-10.36v-15.99l-17.34-28.79h11l11.96,19.9,11.96-19.9h10.17l-17.4,28.92Z"/></g><g class="i"><path class="h" d="M462.8,258.85v44.78h-8.51l-22.33-27.19v27.19h-10.24v-44.78h8.57l22.26,27.19v-27.19h10.24Z"/><path class="h" d="M482.53,301.39c-3.73-2-6.65-4.77-8.76-8.28s-3.17-7.47-3.17-11.87,1.05-8.35,3.17-11.87,5.03-6.28,8.76-8.28c3.73-2,7.92-3.01,12.57-3.01s8.83,1,12.54,3.01c3.71,2,6.63,4.77,8.76,8.28,2.13,3.52,3.2,7.47,3.2,11.87s-1.07,8.35-3.2,11.87c-2.13,3.52-5.05,6.28-8.76,8.28-3.71,2-7.89,3.01-12.54,3.01s-8.84-1-12.57-3.01Zm19.74-7.64c2.13-1.22,3.81-2.91,5.02-5.09,1.22-2.17,1.82-4.65,1.82-7.42s-.61-5.25-1.82-7.42c-1.22-2.18-2.89-3.87-5.02-5.09-2.13-1.22-4.52-1.82-7.17-1.82s-5.03,.61-7.17,1.82c-2.13,1.21-3.81,2.91-5.02,5.09-1.22,2.17-1.82,4.65-1.82,7.42s.61,5.25,1.82,7.42c1.21,2.18,2.89,3.87,5.02,5.09,2.13,1.22,4.52,1.82,7.17,1.82s5.03-.61,7.17-1.82Z"/><path class="h" d="M568.99,258.85l-19.38,44.78h-10.24l-19.32-44.78h11.19l13.63,31.99,13.82-31.99h10.3Z"/><path class="h" d="M622.41,295.19v8.44h-33.84v-6.72l17.27-16.31c1.83-1.75,3.07-3.25,3.71-4.51,.64-1.26,.96-2.5,.96-3.74,0-1.79-.61-3.17-1.82-4.13-1.22-.96-3-1.44-5.34-1.44-1.96,0-3.73,.37-5.31,1.12-1.58,.75-2.9,1.87-3.97,3.36l-7.55-4.86c1.75-2.6,4.16-4.64,7.23-6.11,3.07-1.47,6.59-2.21,10.55-2.21,3.33,0,6.24,.54,8.73,1.63,2.5,1.09,4.44,2.62,5.82,4.61,1.39,1.98,2.08,4.32,2.08,7,0,2.43-.51,4.71-1.54,6.84-1.02,2.13-3.01,4.56-5.95,7.29l-10.3,9.72h19.26Z"/><path class="h" d="M635.84,301.65c-2.9-1.83-5.17-4.49-6.81-7.96-1.64-3.48-2.46-7.62-2.46-12.44s.82-8.97,2.46-12.44c1.64-3.48,3.91-6.13,6.81-7.96,2.9-1.83,6.21-2.75,9.92-2.75s7.01,.92,9.92,2.75,5.17,4.49,6.81,7.96c1.64,3.48,2.46,7.62,2.46,12.44s-.82,8.97-2.46,12.44c-1.64,3.48-3.91,6.13-6.81,7.96-2.9,1.83-6.21,2.75-9.92,2.75s-7.02-.92-9.92-2.75Zm16.34-9.53c1.56-2.35,2.33-5.97,2.33-10.88s-.78-8.53-2.33-10.88c-1.56-2.34-3.7-3.52-6.43-3.52s-4.81,1.17-6.37,3.52c-1.56,2.35-2.33,5.97-2.33,10.88s.78,8.53,2.33,10.88c1.56,2.35,3.68,3.52,6.37,3.52s4.87-1.17,6.43-3.52Z"/></g><g class="i"><path class="h" d="M20.76,347.52v4.88H1.18v-3.88l9.99-9.44c1.06-1.01,1.78-1.88,2.15-2.61,.37-.73,.56-1.45,.56-2.16,0-1.04-.35-1.83-1.05-2.39s-1.73-.83-3.09-.83c-1.13,0-2.16,.22-3.07,.65s-1.68,1.08-2.29,1.94l-4.37-2.81c1.01-1.5,2.4-2.68,4.18-3.53,1.78-.85,3.81-1.28,6.11-1.28,1.92,0,3.61,.31,5.05,.94s2.56,1.52,3.37,2.66c.8,1.15,1.2,2.5,1.2,4.05,0,1.41-.3,2.73-.89,3.96-.59,1.23-1.74,2.64-3.44,4.22l-5.96,5.62h11.14Z"/><path class="h" d="M24.09,338.38c-.69-.69-1.04-1.55-1.04-2.59s.35-1.92,1.04-2.57c.69-.65,1.54-.98,2.55-.98s1.86,.33,2.55,.98c.69,.65,1.04,1.51,1.04,2.57s-.35,1.9-1.04,2.59c-.69,.69-1.54,1.04-2.55,1.04s-1.86-.34-2.55-1.04Zm0,13.28c-.69-.69-1.04-1.55-1.04-2.59s.35-1.92,1.04-2.57c.69-.65,1.54-.98,2.55-.98s1.86,.33,2.55,.98c.69,.65,1.04,1.51,1.04,2.57s-.35,1.9-1.04,2.59c-.69,.69-1.54,1.04-2.55,1.04s-1.86-.34-2.55-1.04Z"/><path class="h" d="M38.29,351.25c-1.68-1.06-2.99-2.6-3.94-4.61-.95-2.01-1.42-4.41-1.42-7.2s.47-5.19,1.42-7.2c.95-2.01,2.26-3.55,3.94-4.61,1.68-1.06,3.59-1.59,5.73-1.59s4.06,.53,5.73,1.59c1.68,1.06,2.99,2.6,3.94,4.61s1.42,4.41,1.42,7.2-.48,5.19-1.42,7.2-2.26,3.55-3.94,4.61c-1.68,1.06-3.59,1.59-5.73,1.59s-4.06-.53-5.73-1.59Zm9.45-5.51c.9-1.36,1.35-3.45,1.35-6.29s-.45-4.93-1.35-6.29c-.9-1.36-2.14-2.04-3.72-2.04s-2.78,.68-3.68,2.04-1.35,3.45-1.35,6.29,.45,4.93,1.35,6.29,2.13,2.04,3.68,2.04,2.82-.68,3.72-2.04Z"/><path class="h" d="M63.42,351.25c-1.68-1.06-2.99-2.6-3.94-4.61-.95-2.01-1.42-4.41-1.42-7.2s.47-5.19,1.42-7.2c.95-2.01,2.26-3.55,3.94-4.61,1.68-1.06,3.59-1.59,5.73-1.59s4.06,.53,5.73,1.59c1.68,1.06,2.99,2.6,3.94,4.61s1.42,4.41,1.42,7.2-.48,5.19-1.42,7.2-2.26,3.55-3.94,4.61c-1.68,1.06-3.59,1.59-5.73,1.59s-4.06-.53-5.73-1.59Zm9.45-5.51c.9-1.36,1.35-3.45,1.35-6.29s-.45-4.93-1.35-6.29c-.9-1.36-2.14-2.04-3.72-2.04s-2.78,.68-3.68,2.04-1.35,3.45-1.35,6.29,.45,4.93,1.35,6.29,2.13,2.04,3.68,2.04,2.82-.68,3.72-2.04Z"/><path class="h" d="M101.99,327.65c1.69,.77,2.99,1.85,3.9,3.26,.91,1.41,1.37,3.07,1.37,5s-.46,3.56-1.37,4.98c-.91,1.42-2.21,2.5-3.9,3.26s-3.68,1.13-5.98,1.13h-5.22v7.14h-5.99v-25.9h11.21c2.29,0,4.29,.38,5.98,1.15Zm-2.2,11.56c.94-.78,1.41-1.88,1.41-3.31s-.47-2.57-1.41-3.35c-.94-.78-2.31-1.16-4.11-1.16h-4.88v8.99h4.88c1.8,0,3.17-.39,4.11-1.17Z"/><path class="h" d="M135.09,352.4l-.04-15.54-7.62,12.8h-2.7l-7.58-12.47v15.21h-5.62v-25.9h4.96l9.69,16.1,9.55-16.1h4.92l.07,25.9h-5.62Z"/></g><g class="i"><path class="j" d="M145.7,339.67h10.47v4.62h-10.47v-4.62Z"/></g><g class="i"><path class="h" d="M176.47,338.42c1.74,1.46,2.61,3.4,2.61,5.85,0,1.58-.4,3.02-1.18,4.31-.79,1.29-1.99,2.33-3.61,3.11-1.62,.78-3.61,1.17-5.98,1.17-1.83,0-3.62-.24-5.38-.72-1.76-.48-3.26-1.17-4.5-2.05l2.37-4.59c.99,.74,2.12,1.31,3.4,1.72,1.28,.41,2.6,.61,3.96,.61,1.5,0,2.69-.3,3.55-.89,.86-.59,1.3-1.42,1.3-2.48s-.45-1.95-1.35-2.52c-.9-.57-2.46-.85-4.68-.85h-6.62l1.33-14.58h15.8v4.81h-10.8l-.41,4.92h2.11c3.65,0,6.35,.73,8.08,2.18Z"/><path class="h" d="M182.37,338.38c-.69-.69-1.04-1.55-1.04-2.59s.35-1.92,1.04-2.57c.69-.65,1.54-.98,2.55-.98s1.86,.33,2.55,.98c.69,.65,1.04,1.51,1.04,2.57s-.35,1.9-1.04,2.59c-.69,.69-1.54,1.04-2.55,1.04s-1.86-.34-2.55-1.04Zm0,13.28c-.69-.69-1.04-1.55-1.04-2.59s.35-1.92,1.04-2.57c.69-.65,1.54-.98,2.55-.98s1.86,.33,2.55,.98c.69,.65,1.04,1.51,1.04,2.57s-.35,1.9-1.04,2.59c-.69,.69-1.54,1.04-2.55,1.04s-1.86-.34-2.55-1.04Z"/><path class="h" d="M208.53,339.58c1.21,1.32,1.81,2.95,1.81,4.9,0,1.5-.39,2.89-1.18,4.16-.79,1.27-1.99,2.29-3.61,3.05s-3.6,1.15-5.94,1.15c-1.83,0-3.62-.24-5.38-.72-1.76-.48-3.26-1.17-4.5-2.05l2.33-4.59c.99,.74,2.13,1.31,3.42,1.72,1.3,.41,2.62,.61,3.98,.61,1.5,0,2.69-.29,3.55-.87,.86-.58,1.29-1.4,1.29-2.46,0-2.12-1.62-3.18-4.85-3.18h-2.74v-3.96l5.33-6.03h-11.03v-4.81h18.13v3.88l-5.85,6.66c2.27,.37,4.01,1.21,5.22,2.54Z"/><path class="h" d="M218.48,351.25c-1.68-1.06-2.99-2.6-3.94-4.61-.95-2.01-1.42-4.41-1.42-7.2s.47-5.19,1.42-7.2c.95-2.01,2.26-3.55,3.94-4.61,1.68-1.06,3.59-1.59,5.73-1.59s4.06,.53,5.73,1.59c1.68,1.06,2.99,2.6,3.94,4.61s1.42,4.41,1.42,7.2-.48,5.19-1.42,7.2-2.26,3.55-3.94,4.61c-1.68,1.06-3.59,1.59-5.73,1.59s-4.06-.53-5.73-1.59Zm9.45-5.51c.9-1.36,1.35-3.45,1.35-6.29s-.45-4.93-1.35-6.29c-.9-1.36-2.14-2.04-3.72-2.04s-2.78,.68-3.68,2.04-1.35,3.45-1.35,6.29,.45,4.93,1.35,6.29,2.13,2.04,3.68,2.04,2.82-.68,3.72-2.04Z"/><path class="h" d="M257.05,327.65c1.69,.77,2.99,1.85,3.9,3.26,.91,1.41,1.37,3.07,1.37,5s-.46,3.56-1.37,4.98c-.91,1.42-2.21,2.5-3.9,3.26s-3.68,1.13-5.98,1.13h-5.22v7.14h-5.99v-25.9h11.21c2.29,0,4.29,.38,5.98,1.15Zm-2.2,11.56c.94-.78,1.41-1.88,1.41-3.31s-.47-2.57-1.41-3.35c-.94-.78-2.31-1.16-4.11-1.16h-4.88v8.99h4.88c1.8,0,3.17-.39,4.11-1.17Z"/><path class="h" d="M290.15,352.4l-.04-15.54-7.62,12.8h-2.7l-7.58-12.47v15.21h-5.62v-25.9h4.96l9.69,16.1,9.55-16.1h4.92l.07,25.9h-5.62Z"/></g><g class="i"><path class="l" d="M348.24,326.5l-5.18,25.9h-7.33l4.03-20.24h-4.81l1.15-5.66h12.14Z"/><path class="l" d="M373.18,326.5l-.93,4.59-13.17,21.31h-8.21l12.54-20.09h-6.59l-.81,4h-6.25l1.96-9.8h21.46Z"/><path class="l" d="M407.64,341.1c.6,.88,.91,1.91,.91,3.09,0,2.69-1.1,4.73-3.29,6.12-2.2,1.39-5.06,2.09-8.58,2.09h-14.25l5.18-25.9h13.1c2.91,0,5.14,.52,6.68,1.57s2.31,2.55,2.31,4.5c0,1.5-.41,2.81-1.22,3.9-.81,1.1-1.95,1.96-3.4,2.57,1.11,.49,1.97,1.18,2.57,2.05Zm-7.49,5.24c.74-.52,1.11-1.28,1.11-2.29,0-.74-.27-1.29-.81-1.65-.54-.36-1.28-.54-2.22-.54h-6.48l-1.04,5.25h6.36c1.31,0,2.33-.26,3.07-.78Zm-6.36-14.54l-1,4.99h5.25c1.31,0,2.3-.25,2.98-.76,.68-.51,1.02-1.24,1.02-2.2,0-1.36-1.02-2.04-3.07-2.04h-5.18Z"/><path class="l" d="M429.53,347.37h-11.03l-3,5.03h-7.73l16.61-25.9h7.21l6.25,25.9h-7.29l-1.04-5.03Zm-1.11-5.4l-1.74-8.4-4.96,8.4h6.7Z"/><path class="l" d="M469.75,326.5l-5.18,25.9h-6.03l-8.55-14.21-2.85,14.21h-7.18l5.18-25.9h6.03l8.58,14.17,2.81-14.17h7.18Z"/><path class="l" d="M474.96,326.5h11.25c2.66,0,4.97,.44,6.92,1.31,1.95,.88,3.45,2.13,4.5,3.78,1.05,1.64,1.57,3.57,1.57,5.79,0,3.01-.68,5.65-2.05,7.92-1.37,2.27-3.27,4.02-5.72,5.25-2.44,1.23-5.24,1.85-8.4,1.85h-13.25l5.18-25.9Zm8.29,20.05c1.78,0,3.31-.38,4.61-1.13s2.28-1.79,2.94-3.11c.67-1.32,1-2.82,1-4.5s-.54-3.1-1.63-4.05c-1.09-.95-2.68-1.42-4.77-1.42h-4.29l-2.81,14.21h4.96Z"/><path class="l" d="M503.9,352.14c-1.92-.52-3.49-1.18-4.7-2l2.89-5.48c1.31,.84,2.7,1.47,4.18,1.91,1.48,.43,2.96,.65,4.44,.65s2.5-.21,3.27-.61c.78-.41,1.17-.97,1.17-1.68,0-.62-.35-1.1-1.05-1.44-.7-.34-1.79-.71-3.27-1.11-1.68-.44-3.07-.89-4.18-1.35-1.11-.46-2.07-1.15-2.87-2.09s-1.2-2.17-1.2-3.7c0-1.85,.5-3.47,1.52-4.87,1.01-1.39,2.45-2.47,4.33-3.24,1.87-.76,4.07-1.15,6.59-1.15,1.85,0,3.58,.19,5.18,.57,1.6,.38,2.98,.93,4.14,1.65l-2.66,5.44c-1.01-.64-2.13-1.13-3.35-1.46-1.22-.33-2.47-.5-3.76-.5-1.46,0-2.6,.23-3.42,.7-.83,.47-1.24,1.07-1.24,1.81,0,.64,.36,1.13,1.07,1.48s1.83,.72,3.33,1.11c1.68,.42,3.06,.85,4.16,1.29,1.1,.45,2.04,1.12,2.83,2.04,.79,.91,1.18,2.11,1.18,3.59,0,1.83-.51,3.44-1.54,4.83-1.02,1.39-2.48,2.47-4.37,3.24-1.89,.76-4.08,1.15-6.57,1.15-2.15,0-4.18-.26-6.1-.78Z"/></g><g class="i"><path class="j" d="M574.99,338.16c1.74,1.48,2.61,3.46,2.61,5.92,0,1.6-.41,3.08-1.24,4.42-.83,1.35-2.08,2.42-3.77,3.22-1.69,.8-3.78,1.2-6.27,1.2-1.83,0-3.63-.22-5.42-.67s-3.32-1.07-4.61-1.89l2.63-5.51c1.04,.69,2.18,1.22,3.42,1.59,1.25,.37,2.5,.55,3.76,.55s2.26-.24,3.02-.72c.75-.48,1.13-1.15,1.13-2.02s-.37-1.52-1.11-1.96c-.74-.44-2.05-.67-3.92-.67h-7.03l1.29-15.13h16.5v5.66h-10.43l-.33,3.78h1.74c3.63,0,6.31,.74,8.05,2.22Z"/><path class="j" d="M609.75,327.67c1.73,.78,3.06,1.89,4,3.33,.94,1.44,1.41,3.14,1.41,5.09s-.47,3.64-1.41,5.07c-.94,1.43-2.27,2.53-4,3.31-1.73,.78-3.76,1.17-6.11,1.17h-4.51v6.77h-7.33v-25.9h11.84c2.34,0,4.38,.39,6.11,1.17Zm-3.15,11.21c.76-.65,1.15-1.59,1.15-2.79s-.38-2.14-1.15-2.81-1.9-1-3.4-1h-4.07v7.59h4.07c1.5,0,2.64-.33,3.4-.98Z"/><path class="j" d="M624.75,351.18c-2.18-1.16-3.9-2.76-5.14-4.81-1.25-2.05-1.87-4.35-1.87-6.92s.62-4.87,1.87-6.92c1.25-2.05,2.96-3.65,5.14-4.81,2.18-1.16,4.64-1.74,7.38-1.74s5.2,.58,7.38,1.74c2.18,1.16,3.9,2.76,5.14,4.81,1.25,2.05,1.87,4.35,1.87,6.92s-.62,4.87-1.87,6.92c-1.25,2.05-2.96,3.65-5.14,4.81-2.18,1.16-4.64,1.74-7.38,1.74s-5.2-.58-7.38-1.74Zm10.93-5.25c1.06-.62,1.9-1.49,2.52-2.61,.62-1.12,.92-2.41,.92-3.87s-.31-2.74-.92-3.87c-.62-1.12-1.46-1.99-2.52-2.61-1.06-.62-2.25-.92-3.55-.92s-2.49,.31-3.55,.92c-1.06,.62-1.9,1.49-2.52,2.61s-.92,2.41-.92,3.87,.31,2.74,.92,3.87,1.46,1.99,2.52,2.61c1.06,.62,2.24,.92,3.55,.92s2.49-.31,3.55-.92Z"/><path class="j" d="M661.7,345.52h-4v6.88h-7.33v-25.9h11.84c2.34,0,4.38,.39,6.1,1.17s3.06,1.89,4,3.33c.94,1.44,1.41,3.14,1.41,5.09s-.44,3.51-1.31,4.9c-.88,1.39-2.13,2.48-3.76,3.27l5.59,8.14h-7.84l-4.7-6.88Zm3.48-12.25c-.77-.67-1.9-1-3.4-1h-4.07v7.59h4.07c1.5,0,2.64-.33,3.4-.98,.76-.65,1.15-1.59,1.15-2.79s-.38-2.14-1.15-2.81Z"/><path class="j" d="M683.36,351.2c-2.16-1.15-3.85-2.74-5.09-4.79s-1.85-4.37-1.85-6.96,.62-4.91,1.85-6.96,2.93-3.64,5.09-4.79c2.16-1.15,4.59-1.72,7.31-1.72,2.37,0,4.5,.42,6.4,1.26s3.48,2.05,4.74,3.62l-4.66,4.22c-1.68-2.02-3.71-3.03-6.11-3.03-1.41,0-2.66,.31-3.75,.92-1.1,.62-1.95,1.49-2.55,2.61s-.91,2.41-.91,3.87,.3,2.74,.91,3.87,1.46,1.99,2.55,2.61c1.1,.62,2.35,.92,3.75,.92,2.39,0,4.43-1.01,6.11-3.03l4.66,4.22c-1.26,1.58-2.84,2.79-4.74,3.63s-4.03,1.26-6.4,1.26c-2.71,0-5.15-.57-7.31-1.72Z"/><path class="j" d="M729.7,326.5v25.9h-7.33v-10.1h-9.99v10.1h-7.33v-25.9h7.33v9.73h9.99v-9.73h7.33Z"/><path class="j" d="M755.68,346.74v5.66h-20.79v-25.9h20.31v5.66h-13.06v4.37h11.51v5.47h-11.51v4.74h13.54Z"/><path class="j" d="M762.74,352.14c-1.97-.52-3.58-1.21-4.81-2.07l2.41-5.4c1.16,.77,2.5,1.38,4.03,1.85s3.03,.7,4.51,.7c2.81,0,4.22-.7,4.22-2.11,0-.74-.4-1.29-1.2-1.65-.8-.36-2.09-.73-3.87-1.13-1.95-.42-3.58-.87-4.88-1.35-1.31-.48-2.43-1.25-3.37-2.31s-1.41-2.49-1.41-4.29c0-1.58,.43-3,1.29-4.27,.86-1.27,2.15-2.28,3.87-3.02,1.71-.74,3.82-1.11,6.31-1.11,1.7,0,3.38,.19,5.03,.57,1.65,.38,3.11,.94,4.37,1.68l-2.26,5.44c-2.47-1.33-4.86-2-7.18-2-1.46,0-2.52,.22-3.18,.65s-1,.99-1,1.68,.39,1.21,1.18,1.55c.79,.35,2.06,.7,3.81,1.07,1.97,.42,3.61,.87,4.9,1.35s2.42,1.25,3.37,2.29c.95,1.05,1.42,2.47,1.42,4.27,0,1.55-.43,2.96-1.29,4.22s-2.16,2.26-3.88,3.02-3.82,1.13-6.29,1.13c-2.1,0-4.13-.26-6.11-.78Z"/></g><circle id="d" class="j" cx="314.49" cy="340.56" r="5"/><circle id="e" class="h" cx="537.49" cy="340.56" r="5"/><line id="f" class="k" x1="263.61" y1="226.13" x2="517.61" y2="226.13"/><line id="g" class="k" x1="263.61" y1="389.63" x2="517.61" y2="389.63"/></g></svg>