<?xml version="1.0" encoding="UTF-8"?><svg xmlns="http://www.w3.org/2000/svg" viewBox="0 0 67.04 101.25"><defs><style>.d{isolation:isolate;}.e{fill:#f04770;}.f{fill:#f0c807;mix-blend-mode:multiply;opacity:.68;}</style></defs><g class="d"><g id="b"><g id="c"><g><path class="f" d="M33.52,34.21C15.01,34.21,0,49.22,0,67.73s15.01,33.52,33.52,33.52,33.52-15.01,33.52-33.52-15.01-33.52-33.52-33.52Zm0,57.24c-13.1,0-23.72-10.62-23.72-23.72s10.62-23.72,23.72-23.72,23.72,10.62,23.72,23.72-10.62,23.72-23.72,23.72Z"/><path class="e" d="M57.24,30.88v7.03H29.07v-5.59l14.38-13.58c1.53-1.46,2.56-2.71,3.09-3.75,.53-1.05,.8-2.08,.8-3.11,0-1.49-.51-2.64-1.52-3.43-1.01-.8-2.49-1.2-4.45-1.2-1.63,0-3.11,.31-4.42,.93-1.31,.62-2.41,1.55-3.3,2.8l-6.28-4.05c1.46-2.16,3.46-3.86,6.02-5.08,2.56-1.22,5.48-1.84,8.79-1.84,2.77,0,5.19,.45,7.27,1.36,2.08,.9,3.69,2.18,4.85,3.83,1.15,1.65,1.73,3.59,1.73,5.83,0,2.02-.43,3.92-1.28,5.7-.85,1.78-2.5,3.8-4.95,6.07l-8.57,8.09h16.03Z"/></g></g></g></g></svg>