<?xml version="1.0" encoding="UTF-8"?><svg xmlns="http://www.w3.org/2000/svg" viewBox="0 0 67.04 98.46"><defs><style>.d{isolation:isolate;}.e{fill:#f04770;}.f{fill:#f0c807;mix-blend-mode:multiply;opacity:.68;}</style></defs><g class="d"><g id="b"><g id="c"><g><path class="f" d="M33.52,31.42C15.01,31.42,0,46.42,0,64.94s15.01,33.52,33.52,33.52,33.52-15.01,33.52-33.52S52.03,31.42,33.52,31.42Zm0,57.24c-13.1,0-23.72-10.62-23.72-23.72s10.62-23.72,23.72-23.72,23.72,10.62,23.72,23.72-10.62,23.72-23.72,23.72Z"/><path class="e" d="M42.5,18.82c1.74,1.9,2.61,4.25,2.61,7.05,0,2.17-.57,4.16-1.7,5.99-1.14,1.83-2.87,3.29-5.19,4.39-2.33,1.1-5.17,1.65-8.55,1.65-2.63,0-5.21-.35-7.75-1.04-2.54-.69-4.69-1.68-6.47-2.96l3.35-6.6c1.42,1.06,3.06,1.89,4.93,2.48,1.86,.59,3.77,.88,5.72,.88,2.16,0,3.87-.42,5.11-1.25,1.24-.83,1.86-2.01,1.86-3.54,0-3.05-2.33-4.58-6.97-4.58h-3.94v-5.7l7.67-8.68h-15.87V0h26.09V5.59l-8.41,9.58c3.27,.53,5.77,1.75,7.51,3.65Z"/></g></g></g></g></svg>