<?xml version="1.0" encoding="UTF-8"?><svg xmlns="http://www.w3.org/2000/svg" viewBox="0 0 73.44 89.73"><defs><style>.d{isolation:isolate;}.e{fill:#f04770;}.f{fill:#f0c807;mix-blend-mode:multiply;opacity:.68;}</style></defs><g class="d"><g id="b"><g id="c"><g><path class="f" d="M36.72,0C16.44,0,0,16.44,0,36.72s16.44,36.72,36.72,36.72,36.72-16.44,36.72-36.72S57,0,36.72,0Zm0,62.71c-14.35,0-25.99-11.63-25.99-25.99S22.37,10.73,36.72,10.73s25.99,11.63,25.99,25.99-11.63,25.99-25.99,25.99Z"/><path class="e" d="M47.14,70.23c2.35,1.97,3.53,4.6,3.53,7.9,0,2.13-.53,4.08-1.6,5.82-1.07,1.75-2.69,3.15-4.87,4.2-2.18,1.05-4.88,1.58-8.07,1.58-2.47,0-4.89-.32-7.28-.98-2.38-.65-4.41-1.57-6.07-2.77l3.2-6.2c1.33,1,2.87,1.77,4.6,2.32,1.73,.55,3.52,.83,5.35,.83,2.03,0,3.63-.4,4.8-1.2,1.17-.8,1.75-1.92,1.75-3.35s-.61-2.63-1.82-3.4c-1.22-.77-3.32-1.15-6.33-1.15h-8.95l1.8-19.7h21.35v6.5h-14.6l-.55,6.65h2.85c4.93,0,8.57,.98,10.93,2.95Z"/></g></g></g></g></svg>