<?xml version="1.0" encoding="UTF-8"?>
<svg id="Layer_2" data-name="Layer 2" xmlns="http://www.w3.org/2000/svg" viewBox="0 0 340 340">
  <defs>
    <style>
      .cls-1, .cls-2 {
        fill: none;
      }

      .cls-3 {
        fill: #fff;
      }

      .cls-2 {
        stroke: #f0c807;
        stroke-width: 20px;
      }
    </style>
  </defs>
  <g id="Layer_1-2" data-name="Layer 1">
    <g id="food">
      <g id="Ellipse_13" data-name="Ellipse 13">
        <circle class="cls-1" cx="170" cy="170" r="170"/>
        <circle class="cls-2" cx="170" cy="170" r="160"/>
      </g>
      <g id="noun-food-750655">
        <path id="Path_186" data-name="Path 186" class="cls-3" d="M163.43,230.86l-23.92,36.36c-2.82,4.26-7.23,7.23-12.24,8.24-1.19,.24-2.4,.36-3.62,.36-3.54,0-7-1.05-9.93-3.03-4.18-2.8-7-7.22-7.77-12.19-.79-4.96,.48-10.02,3.52-14.01l32.9-42.67h0c1.58-1.92,4.42-2.19,6.34-.61,1.83,1.51,2.17,4.18,.78,6.11l-32.9,42.67c-3.09,4.07-2.3,9.87,1.77,12.96,.15,.12,.31,.23,.47,.34,1.98,1.32,4.41,1.79,6.74,1.3,2.66-.53,4.99-2.1,6.49-4.36l23.83-36.4c1.39-2.05,4.18-2.59,6.24-1.2,2.02,1.37,2.58,4.09,1.26,6.14h.03Zm94.5-160.98c-8.38-5.97-19.76-6.42-32.02-1.23-12.64,5.78-23.48,14.89-31.33,26.36-11.36,15.95-16.69,34.2-14.22,48.85,.55,3.39,.25,6.86-.88,10.11-.9,2.32,.24,4.92,2.56,5.83s4.92-.24,5.83-2.56c.05-.12,.09-.24,.13-.37,1.6-4.65,2.03-9.63,1.24-14.49-2.04-12.17,2.81-28.32,12.67-42.15h0c6.87-10.11,16.35-18.16,27.45-23.29,9.3-3.91,17.56-3.82,23.31,.29s8.56,11.88,7.88,21.94h0c-1.23,12.16-5.74,23.76-13.05,33.55-9.77,13.85-23.56,23.71-35.73,25.73-4.75,.82-9.24,2.77-13.07,5.7-1.05,.8-2.04,1.66-2.99,2.58-1.69,1.82-1.58,4.66,.23,6.35,1.69,1.57,4.3,1.6,6.03,.07,.71-.67,1.46-1.29,2.25-1.86,2.67-2.05,5.79-3.42,9.1-4,14.66-2.45,30.19-13.48,41.57-29.38h0c8.28-11.16,13.36-24.35,14.71-38.18,.81-13.27-3.32-23.9-11.66-29.87h0Zm-98.03,81.68c-.21-.37-.21-.82,0-1.19,3.98-9,2.92-19.43-2.78-27.44l-40.11-55.96c-1.42-2.03-4.22-2.53-6.25-1.11-2.03,1.42-2.53,4.22-1.11,6.25,.02,.03,.04,.06,.07,.09l40.07,55.97c3.87,5.42,4.59,12.48,1.89,18.57-1.54,3.39-1.1,7.36,1.15,10.33l74.12,95.85h0c2.98,3.73,2.37,9.17-1.36,12.15-3.73,2.98-9.17,2.37-12.15-1.36-.19-.23-.36-.48-.52-.73l-67.24-100.84c-2.08-3.12-5.7-4.84-9.43-4.49-6.63,.61-13.1-2.33-17-7.72l-40-55.83c-1.4-2.05-4.19-2.58-6.24-1.19-2.05,1.4-2.58,4.19-1.19,6.24,.04,.06,.08,.12,.13,.18l40.04,55.94c5.77,8,15.34,12.35,25.15,11.43,.42-.07,.85,.1,1.12,.43l67.15,100.82c2.63,4,6.79,6.74,11.5,7.59,1.06,.19,2.13,.29,3.21,.29,9.74-.03,17.61-7.95,17.58-17.68-.01-3.88-1.3-7.66-3.68-10.73l-74.09-95.86Zm-28.7-12.08c2.48,0,4.5-2,4.5-4.48,0-.93-.28-1.83-.82-2.59l-36.61-52.28c-1.41-2.04-4.2-2.56-6.25-1.15-2.04,1.41-2.56,4.2-1.15,6.25,.01,.02,.02,.03,.04,.05l36.61,52.28h0c.84,1.21,2.21,1.93,3.68,1.93h0Z"/>
      </g>
    </g>
  </g>
</svg>